<svg xmlns="http://www.w3.org/2000/svg" width="204" height="61" fill="none"><path fill="#fff" fill-rule="evenodd" d="M16.255 0h171.5a143.905 143.905 0 0 1 3.419.022c1.143.011 2.283.1 3.41.267a12.6 12.6 0 0 1 3.253.948c2.05.933 3.719 2.413 4.771 4.23a9.25 9.25 0 0 1 1.056 2.877c.19 1 .296 2.01.316 3.025.007.463.007.928.007 1.391.013.548.013 1.097.013 1.65v31.626c0 .557 0 1.103-.013 1.652 0 .47 0 .924-.007 1.394a18.114 18.114 0 0 1-.316 3.025 9.206 9.206 0 0 1-1.056 2.877 9.812 9.812 0 0 1-2.014 2.44 10.763 10.763 0 0 1-2.757 1.78c-1.025.46-2.122.78-3.253.954a25.454 25.454 0 0 1-3.41.267c-.519.01-1.052.016-1.571.016-.613.003-1.236.003-1.848.003h-171.5c-.626 0-1.243 0-1.867-.003-.522 0-1.04-.006-1.566-.016a25.792 25.792 0 0 1-3.417-.267 12.47 12.47 0 0 1-3.24-.953 10.744 10.744 0 0 1-2.76-1.781 9.526 9.526 0 0 1-2.008-2.44A9.187 9.187 0 0 1 .33 52.107c-.19-1-.292-2.012-.305-3.025-.011-.321-.015-.635-.02-.951L0 47.688V12.76l.007-.446c.004-.315.008-.63.019-.945.013-1.014.116-2.025.305-3.025a9.207 9.207 0 0 1 1.066-2.876 9.599 9.599 0 0 1 2.008-2.45c.81-.718 1.74-1.319 2.76-1.781a12.404 12.404 0 0 1 3.24-.948 25.345 25.345 0 0 1 3.417-.267l.327-.004c.415-.006.826-.013 1.24-.015C15.011 0 15.628 0 16.254 0Zm-3.38 58.914c.515.01 1.022.016 1.541.016l173.319.003 1.848-.003c.507 0 1.03-.005 1.529-.016a24.193 24.193 0 0 0 3.186-.245 10.95 10.95 0 0 0 2.843-.825 9.254 9.254 0 0 0 2.385-1.535 8.361 8.361 0 0 0 1.731-2.08 7.91 7.91 0 0 0 .921-2.507c.174-.92.271-1.85.291-2.782.007-.46.007-.908.007-1.396.013-.536.013-1.069.013-1.614V14.513c0-.54 0-1.076-.013-1.64 0-.454 0-.91-.005-1.335-.021-.95-.12-1.897-.297-2.833a7.931 7.931 0 0 0-.912-2.476c-.908-1.56-2.347-2.83-4.116-3.632a11.104 11.104 0 0 0-2.848-.823 23.89 23.89 0 0 0-3.167-.244l-1.556-.019H14.417l-1.537.018c-1.072.012-2.14.094-3.197.247-.98.146-1.93.421-2.818.816a9.531 9.531 0 0 0-2.39 1.535 8.197 8.197 0 0 0-1.73 2.099 7.94 7.94 0 0 0-.927 2.495c-.174.929-.269 1.868-.282 2.81-.01.305-.025 1.343-.025 1.343V47.55s.014 1.054.025 1.371c.014.943.109 1.884.284 2.815.162.866.474 1.705.925 2.487a8.126 8.126 0 0 0 1.74 2.097 9.26 9.26 0 0 0 2.38 1.526c.89.396 1.842.673 2.825.822 1.053.151 2.118.233 3.185.245Z" clip-rule="evenodd"/><path fill="#fff" d="M49.56 30.677a7.48 7.48 0 0 1 3.561-6.275 7.656 7.656 0 0 0-6.03-3.26c-2.538-.266-4.998 1.518-6.291 1.518-1.318 0-3.31-1.492-5.453-1.448a8.032 8.032 0 0 0-6.76 4.123c-2.922 5.06-.742 12.496 2.058 16.586 1.4 2.002 3.037 4.24 5.18 4.16 2.095-.087 2.878-1.336 5.408-1.336 2.507 0 3.241 1.336 5.427 1.286 2.249-.037 3.666-2.012 5.017-4.034a16.562 16.562 0 0 0 2.295-4.673 7.227 7.227 0 0 1-4.412-6.647ZM45.432 18.452a7.363 7.363 0 0 0 1.685-5.275 7.491 7.491 0 0 0-4.847 2.508 7.005 7.005 0 0 0-1.729 5.08 6.196 6.196 0 0 0 4.892-2.313ZM76.055 41.011h-7.152l-1.718 5.072h-3.03l6.775-18.765h3.148l6.775 18.765h-3.081l-1.717-5.072Zm-6.412-2.34h5.67l-2.795-8.232h-.078l-2.797 8.232ZM95.484 39.243c0 4.252-2.275 6.983-5.71 6.983a4.637 4.637 0 0 1-4.304-2.393h-.065v6.776h-2.808V32.402h2.718v2.275h.052a4.852 4.852 0 0 1 4.356-2.418c3.472 0 5.761 2.745 5.761 6.984Zm-2.886 0c0-2.77-1.432-4.59-3.616-4.59-2.145 0-3.588 1.859-3.588 4.59 0 2.757 1.443 4.603 3.588 4.603 2.184 0 3.616-1.808 3.616-4.603ZM110.542 39.243c0 4.252-2.275 6.983-5.709 6.983a4.636 4.636 0 0 1-4.305-2.393h-.065v6.776h-2.808V32.402h2.718v2.275h.052a4.856 4.856 0 0 1 4.356-2.418c3.473 0 5.761 2.745 5.761 6.984Zm-2.886 0c0-2.77-1.432-4.59-3.616-4.59-2.145 0-3.588 1.859-3.588 4.59 0 2.757 1.443 4.603 3.588 4.603 2.184 0 3.616-1.808 3.616-4.603ZM120.494 40.855c.209 1.86 2.016 3.082 4.487 3.082 2.367 0 4.07-1.222 4.07-2.9 0-1.456-1.028-2.328-3.46-2.926l-2.431-.586c-3.446-.832-5.046-2.443-5.046-5.058 0-3.238 2.822-5.462 6.828-5.462 3.965 0 6.684 2.224 6.775 5.462h-2.835c-.169-1.873-1.717-3.003-3.98-3.003-2.262 0-3.81 1.143-3.81 2.808 0 1.327.989 2.107 3.407 2.705l2.068.507c3.85.91 5.45 2.457 5.45 5.202 0 3.51-2.797 5.71-7.245 5.71-4.161 0-6.971-2.147-7.152-5.541h2.874ZM138.077 29.164v3.238h2.602v2.224h-2.602v7.542c0 1.172.521 1.718 1.665 1.718a8.79 8.79 0 0 0 .924-.065v2.21a7.719 7.719 0 0 1-1.56.13c-2.77 0-3.85-1.04-3.85-3.694v-7.841h-1.99v-2.224h1.99v-3.238h2.821ZM142.186 39.243c0-4.304 2.535-7.01 6.488-7.01 3.967 0 6.49 2.706 6.49 7.01 0 4.317-2.51 7.01-6.49 7.01-3.978 0-6.488-2.693-6.488-7.01Zm10.117 0c0-2.953-1.353-4.696-3.629-4.696-2.275 0-3.627 1.757-3.627 4.696 0 2.965 1.352 4.694 3.627 4.694 2.276 0 3.629-1.73 3.629-4.694ZM157.48 32.402h2.678v2.328h.065a3.26 3.26 0 0 1 3.291-2.471c.324-.002.646.034.962.104v2.627a3.923 3.923 0 0 0-1.262-.17 2.83 2.83 0 0 0-2.926 3.148v8.115h-2.808V32.402ZM177.424 42.065c-.378 2.483-2.797 4.188-5.891 4.188-3.98 0-6.45-2.667-6.45-6.945 0-4.291 2.483-7.074 6.332-7.074 3.785 0 6.165 2.6 6.165 6.748v.962h-9.663v.17a3.572 3.572 0 0 0 2.204 3.614c.468.19.972.28 1.477.261a3.098 3.098 0 0 0 3.159-1.924h2.667Zm-9.493-4.084h6.839a3.28 3.28 0 0 0-.919-2.469 3.288 3.288 0 0 0-2.436-1.003 3.462 3.462 0 0 0-3.484 3.472ZM69.291 13.194a3.987 3.987 0 0 1 4.243 4.48c0 2.88-1.557 4.536-4.243 4.536h-3.257v-9.016h3.257Zm-1.856 7.741h1.7a2.836 2.836 0 0 0 2.973-3.243 2.844 2.844 0 0 0-2.973-3.224h-1.7v6.467ZM75.116 18.805a3.223 3.223 0 1 1 6.418 0 3.224 3.224 0 1 1-6.418 0Zm5.036 0c0-1.475-.662-2.338-1.825-2.338-1.167 0-1.824.863-1.824 2.338 0 1.487.657 2.343 1.824 2.343 1.163 0 1.825-.862 1.825-2.343ZM90.065 22.21h-1.393l-1.407-5.012h-.106l-1.4 5.012h-1.38l-1.876-6.805h1.362l1.22 5.193h.1l1.398-5.192h1.289l1.399 5.192h.106l1.213-5.192h1.343l-1.868 6.804ZM93.51 15.405h1.293v1.082h.1a2.037 2.037 0 0 1 2.031-1.213 2.214 2.214 0 0 1 2.355 2.531v4.405h-1.343v-4.068c0-1.093-.475-1.637-1.468-1.637a1.561 1.561 0 0 0-1.625 1.724v3.981H93.51v-6.805ZM101.429 12.75h1.343v9.46h-1.343v-9.46ZM104.639 18.805a3.217 3.217 0 0 1 .823-2.475 3.228 3.228 0 0 1 3.69-.78 3.218 3.218 0 0 1 1.755 1.93c.142.426.193.878.15 1.325a3.225 3.225 0 1 1-6.418 0Zm5.036 0c0-1.475-.663-2.338-1.825-2.338-1.168 0-1.824.863-1.824 2.338 0 1.487.656 2.343 1.824 2.343 1.163 0 1.825-.862 1.825-2.343ZM112.471 20.286c0-1.225.912-1.931 2.531-2.032l1.843-.106v-.587c0-.719-.475-1.125-1.393-1.125-.75 0-1.269.276-1.418.757h-1.301c.138-1.17 1.237-1.919 2.781-1.919 1.706 0 2.668.85 2.668 2.287v4.649h-1.293v-.956h-.106a2.293 2.293 0 0 1-2.044 1.068 2.059 2.059 0 0 1-2.088-1.203 2.046 2.046 0 0 1-.18-.833Zm4.374-.582v-.569l-1.662.107c-.937.062-1.362.381-1.362.981 0 .612.531.969 1.262.969a1.606 1.606 0 0 0 1.762-1.488ZM119.947 18.805c0-2.15 1.105-3.512 2.824-3.512a2.246 2.246 0 0 1 2.087 1.193h.1V12.75h1.343v9.46h-1.287v-1.074h-.106a2.36 2.36 0 0 1-2.137 1.187c-1.731 0-2.824-1.362-2.824-3.517Zm1.387 0c0 1.443.68 2.311 1.818 2.311 1.132 0 1.831-.88 1.831-2.305 0-1.418-.707-2.312-1.831-2.312-1.131 0-1.818.874-1.818 2.306ZM131.857 18.805a3.217 3.217 0 0 1 .824-2.475 3.218 3.218 0 0 1 3.689-.78 3.218 3.218 0 0 1 1.755 1.93c.142.427.193.878.15 1.325a3.235 3.235 0 0 1-1.903 3.26 3.223 3.223 0 0 1-4.515-3.26Zm5.037 0c0-1.475-.663-2.338-1.826-2.338-1.167 0-1.824.863-1.824 2.338 0 1.487.657 2.343 1.824 2.343 1.163 0 1.826-.862 1.826-2.343ZM140.077 15.405h1.292v1.082h.101a2.035 2.035 0 0 1 2.03-1.213 2.215 2.215 0 0 1 2.355 2.531v4.405h-1.342v-4.068c0-1.093-.476-1.637-1.469-1.637a1.565 1.565 0 0 0-1.552 1.061 1.57 1.57 0 0 0-.072.663v3.981h-1.343v-6.805ZM153.443 13.711v1.726h1.475v1.13h-1.475v3.5c0 .712.294 1.024.963 1.024.171 0 .342-.01.512-.03v1.118a4.423 4.423 0 0 1-.731.069c-1.493 0-2.088-.526-2.088-1.838v-3.842h-1.08v-1.132h1.08v-1.725h1.344ZM156.752 12.75h1.331v3.749h.106a2.1 2.1 0 0 1 2.075-1.219 2.24 2.24 0 0 1 2.343 2.537v4.393h-1.344v-4.062c0-1.087-.506-1.637-1.455-1.637a1.588 1.588 0 0 0-1.713 1.725v3.974h-1.343v-9.46ZM170.437 20.373a2.759 2.759 0 0 1-2.948 1.968 3.095 3.095 0 0 1-2.385-1.028 3.09 3.09 0 0 1-.758-2.484 3.134 3.134 0 0 1 3.137-3.555c1.893 0 3.036 1.294 3.036 3.43v.469h-4.805v.075a1.796 1.796 0 0 0 1.812 1.95 1.632 1.632 0 0 0 1.619-.825h1.292Zm-4.723-2.193h3.437a1.641 1.641 0 0 0-1.675-1.763 1.737 1.737 0 0 0-1.762 1.763Z"/></svg>