<svg width="204" height="61" viewBox="0 0 204 61" fill="none" xmlns="http://www.w3.org/2000/svg">
<path fill-rule="evenodd" clip-rule="evenodd" d="M16.2545 7.43735e-05H187.755V-0.00012207C188.367 -0.00012207 188.99 -0.00012207 189.603 0.00290014C190.027 0.00530544 190.46 0.0116476 190.887 0.0179076C190.983 0.0193165 191.079 0.0207213 191.174 0.0220761C192.317 0.0333304 193.457 0.122629 194.584 0.289179C195.715 0.459814 196.812 0.779151 197.837 1.23664C199.887 2.17006 201.556 3.64969 202.608 5.46744C203.122 6.37317 203.478 7.34296 203.664 8.34356C203.854 9.3436 203.96 10.3548 203.98 11.3688C203.987 11.8322 203.987 12.297 203.987 12.7604C204 13.3078 204 13.8568 204 14.4102V46.0356C204 46.5935 204 47.1395 203.987 47.6885C203.987 48.1577 203.987 48.6122 203.98 49.0816C203.96 50.0955 203.854 51.1066 203.664 52.1066C203.479 53.1078 203.123 54.0782 202.608 54.9842C202.085 55.886 201.406 56.7092 200.594 57.4236C199.788 58.1442 198.857 58.7455 197.837 59.2048C196.812 59.6635 195.715 59.9847 194.584 60.158C193.457 60.3232 192.317 60.4125 191.174 60.4251C190.655 60.4354 190.122 60.4413 189.603 60.4413C188.99 60.4443 188.367 60.4443 187.755 60.4443H16.2545C15.6294 60.4443 15.0117 60.4443 14.3882 60.4413C13.8663 60.4413 13.3485 60.4354 12.8216 60.4251C11.6769 60.4118 10.535 60.3225 9.4054 60.158C8.27744 59.9859 7.18505 59.6646 6.16483 59.2048C5.14339 58.7458 4.21172 58.1444 3.4054 57.4236C2.59163 56.712 1.91331 55.8882 1.39681 54.9842C0.878142 54.0788 0.518824 53.1084 0.331323 52.1066C0.141519 51.1068 0.0393816 50.0954 0.0258273 49.0816C0.0150189 48.7609 0.010815 48.4472 0.0065778 48.1309C0.00461297 47.9843 0.00264098 47.8371 0 47.6885V12.7604C0.00267228 12.6118 0.00465961 12.4631 0.00664765 12.3144C0.0108614 11.9991 0.0150783 11.6836 0.0258273 11.3689C0.0393775 10.355 0.141515 9.34352 0.331323 8.34362C0.519343 7.34245 0.87864 6.37257 1.39681 5.4675C1.91354 4.56062 2.59177 3.73347 3.4054 3.01786C4.21479 2.30023 5.14585 1.69927 6.16483 1.23678C7.18506 0.778167 8.27756 0.458744 9.4054 0.289315C10.5348 0.123496 11.6769 0.0342281 12.8216 0.0222876C12.931 0.0207536 13.04 0.0191596 13.1487 0.0175696C13.5637 0.0115011 13.9746 0.00549136 14.3882 0.00309659C15.0117 7.43736e-05 15.6293 7.43735e-05 16.2545 7.43735e-05ZM12.8753 58.9143C13.3905 58.9245 13.8972 58.9303 14.4165 58.9303L187.735 58.9333L189.583 58.9303C190.09 58.9303 190.613 58.9245 191.112 58.9143C192.18 58.9028 193.245 58.821 194.298 58.6694C195.288 58.5216 196.246 58.2434 197.141 57.8441C198.025 57.4486 198.83 56.9303 199.526 56.3092C200.224 55.7002 200.808 54.9982 201.257 54.229C201.708 53.4399 202.019 52.5943 202.178 51.7221C202.352 50.8021 202.449 49.8722 202.469 48.9397C202.476 48.4794 202.476 48.0322 202.476 47.5441C202.489 47.0075 202.489 46.4754 202.489 45.93V14.5128C202.489 13.9726 202.489 13.4368 202.476 12.8739C202.476 12.4194 202.476 11.9628 202.471 11.5376C202.45 10.5882 202.351 9.64136 202.174 8.70463C202.014 7.84375 201.706 7.00921 201.262 6.22935C200.354 4.66979 198.915 3.39954 197.146 2.59665C196.248 2.19956 195.289 1.92239 194.298 1.77425C193.251 1.62287 192.192 1.54128 191.131 1.53017L189.575 1.51111H14.4174L12.8795 1.52944C11.8084 1.54113 10.7399 1.62345 9.68287 1.77572C8.70243 1.92202 7.75253 2.19728 6.86498 2.59226C5.98204 2.99065 5.17553 3.50858 4.47485 4.12714C3.77338 4.73989 3.1891 5.44856 2.74466 6.22568C2.29342 7.01097 1.98106 7.85237 1.81839 8.72076C1.64358 9.64986 1.54927 10.5893 1.53627 11.531C1.5263 11.836 1.51123 12.8739 1.51123 12.8739V47.5514C1.51123 47.5514 1.52538 48.6055 1.53618 48.9221C1.54976 49.8653 1.64462 50.8062 1.81996 51.7368C1.98233 52.6028 2.29445 53.4418 2.74544 54.2245C3.19153 55.0022 3.77907 55.7103 4.48479 56.3209C5.18043 56.9387 5.98438 57.454 6.86581 57.8469C7.75541 58.2432 8.70711 58.5204 9.68953 58.6694C10.7431 58.8202 11.808 58.902 12.8753 58.9143Z" fill="white"/>
<path d="M49.5603 30.6766C49.5766 29.4154 49.9116 28.1787 50.5342 27.0817C51.1568 25.9847 52.0468 25.063 53.1214 24.4024C52.4387 23.4275 51.5382 22.6252 50.4913 22.0592C49.4443 21.4932 48.2798 21.1791 47.0903 21.1419C44.5528 20.8756 42.0927 22.6603 40.7997 22.6603C39.4816 22.6603 37.4907 21.1684 35.3468 21.2125C33.9601 21.2573 32.6087 21.6605 31.4241 22.3829C30.2396 23.1053 29.2624 24.1222 28.5877 25.3346C25.6653 30.3944 27.8452 37.8307 30.6447 41.9206C32.0453 43.9234 33.6823 46.1605 35.8242 46.0812C37.9202 45.9943 38.703 44.7446 41.2331 44.7446C43.7396 44.7446 44.4741 46.0812 46.6595 46.0308C48.9086 45.9942 50.3256 44.0191 51.6771 41.9974C52.6835 40.5704 53.4579 38.9932 53.9716 37.3243C52.665 36.7716 51.5499 35.8465 50.7654 34.6644C49.981 33.4823 49.5619 32.0954 49.5603 30.6766Z" fill="white"/>
<path d="M45.4325 18.452C46.6588 16.9799 47.263 15.0877 47.1167 13.1773C45.2432 13.3741 43.5125 14.2695 42.2697 15.6852C41.662 16.3767 41.1966 17.1813 40.9 18.0529C40.6035 18.9244 40.4816 19.8459 40.5414 20.7646C41.4785 20.7742 42.4056 20.5711 43.2528 20.1706C44.1 19.77 44.8453 19.1824 45.4325 18.452Z" fill="white"/>
<path d="M76.0553 41.011H68.9026L67.1849 46.083H64.1553L70.9302 27.318H74.0778L80.8528 46.083H77.7715L76.0553 41.011ZM69.6434 38.6706H75.3131L72.5181 30.4391H72.4399L69.6434 38.6706Z" fill="white"/>
<path d="M95.4843 39.2432C95.4843 43.4946 93.2088 46.2261 89.7749 46.2261C88.905 46.2716 88.0399 46.0713 87.2786 45.6479C86.5173 45.2246 85.8906 44.5955 85.4703 43.8325H85.4053V50.6089H82.597V32.4018H85.3153V34.6774H85.367C85.8066 33.9181 86.4439 33.2922 87.211 32.8663C87.9781 32.4404 88.8463 32.2304 89.7232 32.2587C93.1955 32.2587 95.4843 35.0035 95.4843 39.2432ZM92.5979 39.2432C92.5979 36.4733 91.1664 34.6523 88.9824 34.6523C86.8368 34.6523 85.3935 36.5116 85.3935 39.2432C85.3935 41.9998 86.8368 43.8459 88.9824 43.8459C91.1664 43.8459 92.5979 42.0381 92.5979 39.2432Z" fill="white"/>
<path d="M110.542 39.2431C110.542 43.4946 108.267 46.2261 104.833 46.2261C103.963 46.2716 103.098 46.0713 102.337 45.6479C101.575 45.2246 100.949 44.5955 100.528 43.8325H100.463V50.6089H97.655V32.4018H100.373V34.6773H100.425C100.865 33.9181 101.502 33.2922 102.269 32.8663C103.036 32.4404 103.904 32.2304 104.781 32.2587C108.254 32.2587 110.542 35.0035 110.542 39.2431ZM107.656 39.2431C107.656 36.4733 106.224 34.6523 104.04 34.6523C101.895 34.6523 100.452 36.5116 100.452 39.2431C100.452 41.9997 101.895 43.8458 104.04 43.8458C106.224 43.8458 107.656 42.0381 107.656 39.2431H107.656Z" fill="white"/>
<path d="M120.494 40.8546C120.703 42.7155 122.51 43.9373 124.981 43.9373C127.348 43.9373 129.051 42.7154 129.051 41.0375C129.051 39.581 128.023 38.7089 125.591 38.1112L123.16 37.5254C119.714 36.6931 118.114 35.0816 118.114 32.4667C118.114 29.229 120.936 27.0051 124.942 27.0051C128.907 27.0051 131.626 29.229 131.717 32.4667H128.882C128.713 30.594 127.165 29.4636 124.902 29.4636C122.64 29.4636 121.092 30.6073 121.092 32.2719C121.092 33.5985 122.081 34.3792 124.499 34.9768L126.567 35.4844C130.417 36.3949 132.017 37.9415 132.017 40.6862C132.017 44.1969 129.22 46.3957 124.772 46.3957C120.611 46.3957 117.801 44.2486 117.62 40.8545L120.494 40.8546Z" fill="white"/>
<path d="M138.077 29.1642V32.4018H140.679V34.6257H138.077V42.168C138.077 43.3397 138.598 43.8857 139.742 43.8857C140.051 43.8803 140.359 43.8586 140.666 43.8207V46.0313C140.151 46.1274 139.629 46.1709 139.106 46.1612C136.336 46.1612 135.256 45.1208 135.256 42.4675V34.6257H133.266V32.4018H135.256V29.1642H138.077Z" fill="white"/>
<path d="M142.186 39.2432C142.186 34.9386 144.721 32.2336 148.674 32.2336C152.641 32.2336 155.164 34.9385 155.164 39.2432C155.164 43.5596 152.654 46.2527 148.674 46.2527C144.696 46.2527 142.186 43.5596 142.186 39.2432ZM152.303 39.2432C152.303 36.2903 150.95 34.5475 148.674 34.5475C146.399 34.5475 145.047 36.3036 145.047 39.2432C145.047 42.2078 146.399 43.9373 148.674 43.9373C150.95 43.9373 152.303 42.2078 152.303 39.2432H152.303Z" fill="white"/>
<path d="M157.48 32.4018H160.158V34.7304H160.223C160.404 34.0032 160.83 33.3605 161.43 32.9103C162.029 32.4602 162.765 32.2301 163.514 32.2587C163.838 32.2575 164.16 32.2927 164.476 32.3634V34.9902C164.068 34.8653 163.641 34.808 163.214 34.8205C162.806 34.8039 162.4 34.8759 162.022 35.0313C161.645 35.1868 161.305 35.4221 161.027 35.7212C160.749 36.0202 160.539 36.3759 160.412 36.7637C160.284 37.1516 160.242 37.5624 160.288 37.9681V46.083H157.48L157.48 32.4018Z" fill="white"/>
<path d="M177.424 42.0647C177.046 44.5483 174.627 46.2527 171.533 46.2527C167.553 46.2527 165.083 43.5861 165.083 39.3081C165.083 35.0168 167.566 32.2336 171.415 32.2336C175.2 32.2336 177.58 34.8338 177.58 38.982V39.9441H167.917V40.1138C167.873 40.6173 167.936 41.1245 168.102 41.6018C168.269 42.0791 168.535 42.5155 168.883 42.882C169.231 43.2485 169.653 43.5368 170.121 43.7276C170.589 43.9185 171.093 44.0076 171.598 43.989C172.261 44.0512 172.927 43.8975 173.497 43.5508C174.066 43.204 174.508 42.6828 174.757 42.0647L177.424 42.0647ZM167.931 37.9814H174.77C174.796 37.5287 174.727 37.0757 174.569 36.6507C174.411 36.2258 174.166 35.8381 173.851 35.5121C173.536 35.186 173.157 34.9286 172.738 34.7561C172.318 34.5835 171.868 34.4994 171.415 34.5091C170.957 34.5064 170.504 34.5943 170.081 34.7677C169.658 34.941 169.273 35.1965 168.949 35.5193C168.625 35.8422 168.368 36.2259 168.194 36.6485C168.019 37.0711 167.929 37.5241 167.931 37.9815V37.9814Z" fill="white"/>
<path d="M69.2913 13.1936C69.88 13.1513 70.4708 13.2402 71.021 13.454C71.5712 13.6677 72.0672 14.0009 72.473 14.4294C72.8789 14.858 73.1846 15.3714 73.368 15.9324C73.5515 16.4934 73.6081 17.0882 73.5339 17.6738C73.5339 20.5543 71.977 22.2101 69.2913 22.2101H66.0344V13.1936H69.2913ZM67.4348 20.935H69.1348C69.5555 20.9601 69.9766 20.8911 70.3672 20.7331C70.7579 20.575 71.1084 20.3318 71.3933 20.0211C71.6781 19.7105 71.8901 19.3403 72.0138 18.9374C72.1375 18.5345 72.1698 18.1091 72.1084 17.6921C72.1653 17.2768 72.1298 16.8541 72.0042 16.4541C71.8786 16.0542 71.6661 15.687 71.3819 15.3788C71.0977 15.0707 70.7489 14.8292 70.3604 14.6717C69.9719 14.5141 69.5534 14.4445 69.1348 14.4677H67.4348V20.935Z" fill="white"/>
<path d="M75.1159 18.8048C75.0731 18.3576 75.1243 17.9065 75.2661 17.4802C75.4079 17.054 75.6372 16.6621 75.9393 16.3297C76.2415 15.9972 76.6097 15.7316 77.0205 15.5499C77.4313 15.3681 77.8756 15.2743 78.3248 15.2743C78.774 15.2743 79.2182 15.3681 79.629 15.5499C80.0398 15.7316 80.4081 15.9972 80.7102 16.3297C81.0124 16.6621 81.2417 17.054 81.3835 17.4802C81.5253 17.9065 81.5765 18.3576 81.5337 18.8048C81.5773 19.2524 81.5267 19.7042 81.3853 20.1311C81.2439 20.5581 81.0147 20.9507 80.7125 21.2837C80.4103 21.6168 80.0417 21.883 79.6305 22.0651C79.2193 22.2473 78.7745 22.3414 78.3248 22.3414C77.875 22.3414 77.4303 22.2473 77.0191 22.0651C76.6079 21.883 76.2393 21.6168 75.9371 21.2837C75.6349 20.9507 75.4057 20.5581 75.2643 20.1311C75.1228 19.7042 75.0723 19.2524 75.1159 18.8048ZM80.1524 18.8048C80.1524 17.3298 79.4898 16.4673 78.327 16.4673C77.1597 16.4673 76.5031 17.3298 76.5031 18.8048C76.5031 20.2916 77.1598 21.1475 78.327 21.1475C79.4899 21.1474 80.1524 20.2856 80.1524 18.8048H80.1524Z" fill="white"/>
<path d="M90.0646 22.2099H88.6716L87.2652 17.1985H87.159L85.7586 22.2099H84.3788L82.5032 15.4055H83.8652L85.0842 20.5977H85.1845L86.5835 15.4055H87.8718L89.2707 20.5977H89.377L90.59 15.4055H91.9329L90.0646 22.2099Z" fill="white"/>
<path d="M93.5104 15.4055H94.8031V16.4865H94.9034C95.0737 16.0982 95.3608 15.7728 95.7248 15.5555C96.0888 15.3382 96.5115 15.2398 96.934 15.2742C97.2651 15.2493 97.5975 15.2992 97.9067 15.4202C98.2159 15.5413 98.4938 15.7303 98.72 15.9734C98.9462 16.2164 99.1148 16.5073 99.2133 16.8243C99.3119 17.1414 99.3378 17.4766 99.2892 17.805V22.2099H97.9463V18.1422C97.9463 17.0487 97.4712 16.5049 96.478 16.5049C96.2532 16.4945 96.0288 16.5327 95.8202 16.6171C95.6116 16.7014 95.4237 16.8299 95.2693 16.9937C95.115 17.1575 94.9979 17.3527 94.9261 17.566C94.8543 17.7792 94.8294 18.0055 94.8533 18.2293V22.21H93.5104L93.5104 15.4055Z" fill="white"/>
<path d="M101.429 12.7493H102.772V22.2099H101.429V12.7493Z" fill="white"/>
<path d="M104.639 18.8048C104.596 18.3576 104.647 17.9064 104.789 17.4801C104.931 17.0539 105.16 16.662 105.462 16.3296C105.764 15.9971 106.133 15.7315 106.543 15.5498C106.954 15.368 107.399 15.2741 107.848 15.2741C108.297 15.2741 108.741 15.368 109.152 15.5498C109.563 15.7315 109.931 15.9971 110.233 16.3296C110.536 16.662 110.765 17.0539 110.907 17.4801C111.049 17.9064 111.1 18.3576 111.057 18.8048C111.101 19.2524 111.05 19.7042 110.909 20.1312C110.767 20.5581 110.538 20.9507 110.236 21.2838C109.933 21.6168 109.565 21.883 109.154 22.0651C108.742 22.2472 108.298 22.3413 107.848 22.3413C107.398 22.3413 106.953 22.2472 106.542 22.0651C106.131 21.883 105.762 21.6168 105.46 21.2838C105.158 20.9507 104.929 20.5581 104.787 20.1312C104.646 19.7042 104.595 19.2524 104.639 18.8048ZM109.675 18.8048C109.675 17.3298 109.012 16.4673 107.85 16.4673C106.682 16.4673 106.026 17.3298 106.026 18.8048C106.026 20.2916 106.682 21.1475 107.85 21.1475C109.013 21.1475 109.675 20.2857 109.675 18.8048H109.675Z" fill="white"/>
<path d="M112.471 20.2857C112.471 19.0608 113.383 18.3547 115.002 18.2544L116.845 18.1481V17.5608C116.845 16.8421 116.37 16.4363 115.452 16.4363C114.702 16.4363 114.183 16.7116 114.034 17.1926H112.733C112.871 16.0239 113.97 15.2742 115.514 15.2742C117.22 15.2742 118.182 16.1235 118.182 17.5608V22.21H116.889V21.2537H116.783C116.567 21.5968 116.264 21.8764 115.905 22.0641C115.546 22.2518 115.144 22.3408 114.739 22.3221C114.453 22.3518 114.165 22.3213 113.891 22.2326C113.618 22.1439 113.367 21.999 113.153 21.8071C112.939 21.6153 112.768 21.3807 112.651 21.1187C112.533 20.8566 112.472 20.5729 112.471 20.2857ZM116.845 19.7042V19.1354L115.183 19.2416C114.246 19.3043 113.821 19.6231 113.821 20.223C113.821 20.8354 114.352 21.1917 115.083 21.1917C115.297 21.2134 115.513 21.1918 115.719 21.1282C115.924 21.0646 116.115 20.9603 116.279 20.8215C116.444 20.6827 116.578 20.5123 116.676 20.3204C116.773 20.1284 116.83 19.9189 116.845 19.7042Z" fill="white"/>
<path d="M119.947 18.8048C119.947 16.6547 121.052 15.2926 122.771 15.2926C123.196 15.2731 123.618 15.3749 123.988 15.5863C124.357 15.7977 124.659 16.1099 124.858 16.4864H124.958V12.7493H126.301V22.2099H125.014V21.1349H124.908C124.694 21.5089 124.382 21.8172 124.005 22.0265C123.628 22.2357 123.202 22.338 122.771 22.3221C121.04 22.3222 119.947 20.9601 119.947 18.8048ZM121.334 18.8048C121.334 20.248 122.014 21.1165 123.152 21.1165C124.284 21.1165 124.983 20.2355 124.983 18.8107C124.983 17.3926 124.276 16.499 123.152 16.499C122.021 16.499 121.334 17.3734 121.334 18.8048H121.334Z" fill="white"/>
<path d="M131.857 18.8048C131.814 18.3576 131.865 17.9065 132.007 17.4802C132.149 17.054 132.378 16.6621 132.681 16.3297C132.983 15.9972 133.351 15.7316 133.762 15.5499C134.173 15.3681 134.617 15.2743 135.066 15.2743C135.515 15.2743 135.959 15.3681 136.37 15.5499C136.781 15.7316 137.149 15.9972 137.451 16.3297C137.754 16.6621 137.983 17.054 138.125 17.4802C138.267 17.9065 138.318 18.3576 138.275 18.8048C138.318 19.2524 138.268 19.7042 138.127 20.1311C137.985 20.5581 137.756 20.9507 137.454 21.2837C137.151 21.6168 136.783 21.883 136.372 22.0651C135.961 22.2473 135.516 22.3414 135.066 22.3414C134.616 22.3414 134.171 22.2473 133.76 22.0651C133.349 21.883 132.981 21.6168 132.678 21.2837C132.376 20.9507 132.147 20.5581 132.005 20.1311C131.864 19.7042 131.814 19.2524 131.857 18.8048ZM136.894 18.8048C136.894 17.3298 136.231 16.4673 135.068 16.4673C133.901 16.4673 133.244 17.3298 133.244 18.8048C133.244 20.2916 133.901 21.1475 135.068 21.1475C136.231 21.1474 136.894 20.2856 136.894 18.8048Z" fill="white"/>
<path d="M140.077 15.4055H141.369V16.4865H141.47C141.64 16.0982 141.927 15.7728 142.291 15.5555C142.655 15.3382 143.078 15.2398 143.5 15.2742C143.831 15.2493 144.164 15.2992 144.473 15.4202C144.782 15.5413 145.06 15.7303 145.286 15.9734C145.512 16.2164 145.681 16.5073 145.78 16.8243C145.878 17.1414 145.904 17.4766 145.855 17.805V22.2099H144.513V18.1422C144.513 17.0487 144.037 16.5049 143.044 16.5049C142.82 16.4945 142.595 16.5327 142.386 16.6171C142.178 16.7014 141.99 16.8299 141.836 16.9937C141.681 17.1575 141.564 17.3527 141.492 17.566C141.421 17.7792 141.396 18.0055 141.42 18.2293V22.21H140.077V15.4055Z" fill="white"/>
<path d="M153.443 13.7114V15.4365H154.918V16.5676H153.443V20.0665C153.443 20.7793 153.737 21.0914 154.406 21.0914C154.577 21.0908 154.748 21.0805 154.918 21.0604V22.179C154.677 22.2221 154.432 22.245 154.187 22.2476C152.694 22.2476 152.099 21.7222 152.099 20.4103V16.5676H151.019V15.4364H152.099V13.7114H153.443Z" fill="white"/>
<path d="M156.752 12.7493H158.083V16.499H158.189C158.368 16.1072 158.663 15.7799 159.034 15.5617C159.405 15.3436 159.835 15.2453 160.264 15.2801C160.593 15.2622 160.923 15.3172 161.228 15.4411C161.534 15.5651 161.809 15.755 162.032 15.9973C162.256 16.2396 162.424 16.5283 162.523 16.8428C162.623 17.1573 162.651 17.4899 162.607 17.8168V22.21H161.263V18.1481C161.263 17.0612 160.757 16.5108 159.808 16.5108C159.577 16.4919 159.345 16.5236 159.128 16.6038C158.911 16.6839 158.714 16.8106 158.55 16.9749C158.387 17.1392 158.262 17.3372 158.183 17.555C158.105 17.7728 158.074 18.0052 158.095 18.2359V22.2099H156.752L156.752 12.7493Z" fill="white"/>
<path d="M170.437 20.3727C170.255 20.9946 169.86 21.5325 169.321 21.8924C168.782 22.2523 168.133 22.4112 167.489 22.3413C167.041 22.3531 166.595 22.2673 166.183 22.0897C165.772 21.9121 165.403 21.647 165.104 21.3128C164.805 20.9786 164.583 20.5834 164.452 20.1545C164.321 19.7256 164.284 19.2734 164.346 18.8291C164.286 18.3835 164.323 17.9303 164.454 17.5001C164.584 17.07 164.806 16.6729 165.103 16.3358C165.401 15.9987 165.767 15.7295 166.178 15.5463C166.588 15.3632 167.034 15.2704 167.483 15.2742C169.376 15.2742 170.519 16.5677 170.519 18.7044V19.173H165.714V19.2482C165.693 19.498 165.724 19.7493 165.806 19.9862C165.888 20.223 166.018 20.4402 166.189 20.6237C166.359 20.8073 166.566 20.9531 166.797 21.0519C167.027 21.1508 167.275 21.2004 167.526 21.1976C167.847 21.2361 168.173 21.1783 168.461 21.0314C168.749 20.8845 168.987 20.6552 169.145 20.3727L170.437 20.3727ZM165.714 18.1798H169.151C169.168 17.9515 169.136 17.7221 169.059 17.5064C168.982 17.2907 168.861 17.0936 168.703 16.9276C168.546 16.7616 168.355 16.6304 168.144 16.5425C167.932 16.4546 167.705 16.4119 167.476 16.4171C167.243 16.4142 167.013 16.4578 166.798 16.5454C166.583 16.6329 166.387 16.7627 166.223 16.927C166.059 17.0912 165.929 17.2867 165.842 17.5019C165.754 17.7171 165.711 17.9476 165.714 18.1798H165.714Z" fill="white"/>
</svg>
