<svg xmlns="http://www.w3.org/2000/svg" width="204" height="61" fill="none"><g clip-path="url(#a)"><path fill="#fff" fill-rule="evenodd" d="M16.255.445h171.5c.612 0 1.235 0 1.848.002a143.894 143.894 0 0 1 1.571.02c1.143.01 2.283.1 3.41.267a12.6 12.6 0 0 1 3.253.947c2.05.934 3.719 2.413 4.771 4.23a9.25 9.25 0 0 1 1.056 2.877c.19 1 .296 2.011.316 3.025.007.464.007.928.007 1.392.013.547.013 1.096.013 1.65V46.48c0 .558 0 1.104-.013 1.653 0 .47 0 .924-.007 1.393a18.116 18.116 0 0 1-.316 3.025 9.207 9.207 0 0 1-1.056 2.878 9.812 9.812 0 0 1-2.014 2.44 10.762 10.762 0 0 1-2.757 1.78c-1.025.459-2.122.78-3.253.953a25.47 25.47 0 0 1-3.41.268c-.519.01-1.052.016-1.571.016-.613.003-1.236.003-1.848.003h-171.5c-.626 0-1.243 0-1.867-.003-.522 0-1.04-.006-1.566-.016a25.809 25.809 0 0 1-3.417-.268 12.462 12.462 0 0 1-3.24-.953 10.741 10.741 0 0 1-2.76-1.78 9.53 9.53 0 0 1-2.008-2.44A9.187 9.187 0 0 1 .33 52.55c-.19-1-.292-2.011-.305-3.025-.011-.32-.015-.634-.02-.95L0 48.132V13.205l.007-.446c.004-.315.008-.63.019-.946C.039 10.8.142 9.788.33 8.788a9.207 9.207 0 0 1 1.066-2.876 9.599 9.599 0 0 1 2.008-2.45c.81-.717 1.74-1.318 2.76-1.78a12.403 12.403 0 0 1 3.24-.948 25.345 25.345 0 0 1 3.417-.267l.327-.005c.415-.006.826-.012 1.24-.014.623-.003 1.24-.003 1.866-.003Zm-3.38 58.914c.515.01 1.022.016 1.541.016l173.319.003 1.848-.003c.507 0 1.03-.006 1.529-.016a24.193 24.193 0 0 0 3.186-.245 10.95 10.95 0 0 0 2.843-.825 9.252 9.252 0 0 0 2.385-1.535 8.36 8.36 0 0 0 1.731-2.08 7.91 7.91 0 0 0 .921-2.507c.174-.92.271-1.85.291-2.783.007-.46.007-.907.007-1.395.013-.537.013-1.07.013-1.614V14.956c0-.54 0-1.076-.013-1.639 0-.454 0-.91-.005-1.336-.021-.95-.12-1.896-.297-2.833a7.931 7.931 0 0 0-.912-2.475c-.908-1.56-2.347-2.83-4.116-3.633a11.104 11.104 0 0 0-2.848-.822 23.892 23.892 0 0 0-3.167-.244l-1.556-.02H14.417l-1.537.019c-1.072.012-2.14.094-3.197.246-.98.147-1.93.422-2.818.817a9.531 9.531 0 0 0-2.39 1.535 8.197 8.197 0 0 0-1.73 2.098 7.94 7.94 0 0 0-.927 2.495c-.174.93-.269 1.869-.282 2.81-.01.305-.025 1.343-.025 1.343v34.678s.014 1.054.025 1.37c.014.944.109 1.885.284 2.815.162.866.474 1.705.925 2.488a8.126 8.126 0 0 0 1.74 2.096 9.26 9.26 0 0 0 2.38 1.526c.89.397 1.842.674 2.825.823 1.053.15 2.118.233 3.185.245Z" clip-rule="evenodd"/><path fill="#fff" d="M101.908 33.182c-3.551 0-6.445 2.731-6.445 6.493 0 3.739 2.894 6.493 6.445 6.493 3.553 0 6.447-2.754 6.447-6.493-.001-3.762-2.896-6.493-6.447-6.493Zm0 10.43c-1.946 0-3.624-1.623-3.624-3.936 0-2.337 1.68-3.936 3.624-3.936 1.946 0 3.624 1.599 3.624 3.936 0 2.312-1.678 3.936-3.624 3.936Zm-14.063-10.43c-3.55 0-6.445 2.731-6.445 6.493 0 3.739 2.894 6.493 6.445 6.493 3.553 0 6.447-2.754 6.447-6.493 0-3.762-2.894-6.493-6.447-6.493Zm0 10.43c-1.946 0-3.623-1.623-3.623-3.936 0-2.337 1.679-3.936 3.623-3.936 1.947 0 3.624 1.599 3.624 3.936.002 2.312-1.677 3.936-3.624 3.936ZM71.12 35.176v2.754h6.52c-.195 1.55-.705 2.68-1.484 3.467-.949.959-2.433 2.017-5.036 2.017-4.013 0-7.15-3.272-7.15-7.33s3.137-7.33 7.15-7.33c2.165 0 3.746.861 4.913 1.968l1.922-1.943C76.324 27.205 74.16 26 71.12 26 65.622 26 61 30.525 61 36.084c0 5.559 4.622 10.084 10.12 10.084 2.966 0 5.205-.985 6.955-2.83 1.8-1.819 2.36-4.378 2.36-6.443 0-.639-.048-1.23-.147-1.721H71.12v.002Zm68.409 2.139c-.535-1.45-2.165-4.133-5.498-4.133-3.308 0-6.057 2.632-6.057 6.493 0 3.64 2.725 6.493 6.373 6.493 2.943 0 4.646-1.82 5.353-2.878l-2.19-1.476c-.729 1.082-1.727 1.795-3.163 1.795-1.434 0-2.457-.664-3.113-1.968l8.586-3.59-.291-.736Zm-8.757 2.164c-.073-2.51 1.922-3.787 3.358-3.787 1.118 0 2.067.566 2.384 1.377l-5.742 2.41Zm-6.98 6.297h2.82V26.69h-2.82v19.086Zm-4.624-11.142h-.096c-.633-.764-1.85-1.452-3.381-1.452-3.211 0-6.154 2.853-6.154 6.519 0 3.64 2.943 6.468 6.154 6.468 1.533 0 2.748-.688 3.381-1.474h.096v.934c0 2.484-1.313 3.812-3.428 3.812-1.728 0-2.798-1.253-3.236-2.311l-2.457 1.033c.705 1.721 2.578 3.837 5.693 3.837 3.308 0 6.105-1.968 6.105-6.765V33.577h-2.675v1.057h-.002Zm-3.234 8.978c-1.946 0-3.575-1.649-3.575-3.911 0-2.289 1.629-3.96 3.575-3.96 1.921 0 3.429 1.671 3.429 3.96 0 2.262-1.508 3.911-3.429 3.911Zm36.812-16.922h-6.75v19.086h2.816v-7.231h3.933c3.122 0 6.193-2.285 6.193-5.927 0-3.64-3.069-5.928-6.192-5.928Zm.073 9.198h-4.007v-6.541h4.007c2.106 0 3.302 1.763 3.302 3.271 0 1.478-1.196 3.27-3.302 3.27Zm17.411-2.74c-2.039 0-4.152.908-5.026 2.922l2.5 1.055c.535-1.055 1.531-1.4 2.575-1.4 1.457 0 2.938.884 2.962 2.455v.197c-.51-.295-1.603-.736-2.938-.736-2.695 0-5.44 1.498-5.44 4.296 0 2.555 2.21 4.199 4.686 4.199 1.894 0 2.939-.86 3.594-1.867h.097v1.473h2.72v-7.318c.002-3.386-2.502-5.276-5.73-5.276Zm-.341 10.46c-.921 0-2.209-.467-2.209-1.622 0-1.473 1.604-2.038 2.988-2.038 1.237 0 1.821.27 2.573.638-.219 1.77-1.724 3.022-3.352 3.022Zm15.979-10.043-3.23 8.275h-.096l-3.352-8.275h-3.035l5.026 11.565-2.865 6.433h2.938L189 33.565h-3.133Zm-25.375 12.21h2.816V26.69h-2.816v19.086ZM71.056 15.85c0 1.203-.37 2.16-1.112 2.875-.842.85-1.94 1.275-3.29 1.275-1.293 0-2.394-.43-3.297-1.292-.905-.863-1.357-1.931-1.357-3.206 0-1.276.452-2.344 1.357-3.206.903-.862 2.004-1.293 3.297-1.293.642 0 1.255.12 1.838.36.583.241 1.05.562 1.4.962l-.787.758c-.593-.682-1.41-1.022-2.453-1.022a3.48 3.48 0 0 0-2.447.956c-.688.637-1.032 1.466-1.032 2.484s.344 1.846 1.032 2.483a3.48 3.48 0 0 0 2.447.956c1 0 1.835-.32 2.502-.961.433-.418.684-1 .751-1.745h-3.253V15.2h4.34c.045.226.064.442.064.65ZM77.94 12.252h-4.08v2.73h3.68v1.036h-3.68v2.73h4.08v1.06h-5.23v-8.614h5.23v1.058ZM82.793 19.808h-1.151v-7.556H79.14v-1.058h6.155v1.058h-2.502v7.556ZM89.749 19.808v-8.614H90.9v8.614h-1.151ZM96.005 19.808h-1.151v-7.556H92.35v-1.058h6.156v1.058h-2.502v7.556ZM110.16 18.695c-.881.87-1.976 1.305-3.285 1.305-1.309 0-2.404-.435-3.283-1.305-.881-.87-1.32-1.935-1.32-3.194 0-1.26.439-2.325 1.32-3.195.879-.87 1.974-1.306 3.283-1.306 1.302 0 2.395.438 3.279 1.312.883.875 1.325 1.937 1.325 3.189 0 1.259-.44 2.324-1.319 3.194Zm-5.719-.722c.663.646 1.474.968 2.434.968.96 0 1.772-.323 2.434-.968.662-.646.995-1.47.995-2.472s-.333-1.826-.995-2.472c-.662-.646-1.474-.968-2.434-.968-.96 0-1.771.323-2.434.968-.661.646-.994 1.47-.994 2.472s.333 1.826.994 2.472ZM113.095 19.808v-8.614h1.4l4.354 6.7h.049l-.049-1.66v-5.04H120v8.614h-1.202l-4.555-7.026h-.049l.049 1.66v5.366h-1.148Z"/><path stroke="#fff" stroke-miterlimit="10" stroke-width=".2" d="M71.056 15.85c0 1.203-.37 2.16-1.112 2.875-.842.85-1.94 1.275-3.29 1.275-1.293 0-2.394-.43-3.297-1.292-.905-.863-1.357-1.931-1.357-3.206 0-1.276.452-2.344 1.357-3.206.903-.862 2.004-1.293 3.297-1.293.642 0 1.255.12 1.838.36.583.241 1.05.562 1.4.962l-.787.758c-.593-.682-1.41-1.022-2.453-1.022a3.48 3.48 0 0 0-2.447.956c-.688.637-1.032 1.466-1.032 2.484s.344 1.846 1.032 2.483a3.48 3.48 0 0 0 2.447.956c1 0 1.835-.32 2.502-.961.433-.418.684-1 .751-1.745h-3.253V15.2h4.34c.045.226.064.442.064.65ZM77.94 12.252h-4.08v2.73h3.68v1.036h-3.68v2.73h4.08v1.06h-5.23v-8.614h5.23v1.058ZM82.793 19.808h-1.151v-7.556H79.14v-1.058h6.155v1.058h-2.502v7.556ZM89.749 19.808v-8.614H90.9v8.614h-1.151ZM96.005 19.808h-1.151v-7.556H92.35v-1.058h6.156v1.058h-2.502v7.556ZM110.16 18.695c-.881.87-1.976 1.305-3.285 1.305-1.309 0-2.404-.435-3.283-1.305-.881-.87-1.32-1.935-1.32-3.194 0-1.26.439-2.325 1.32-3.195.879-.87 1.974-1.306 3.283-1.306 1.302 0 2.395.438 3.279 1.312.883.875 1.325 1.937 1.325 3.189 0 1.259-.44 2.324-1.319 3.194Zm-5.719-.722c.663.646 1.474.968 2.434.968.96 0 1.772-.323 2.434-.968.662-.646.995-1.47.995-2.472s-.333-1.826-.995-2.472c-.662-.646-1.474-.968-2.434-.968-.96 0-1.771.323-2.434.968-.661.646-.994 1.47-.994 2.472s.333 1.826.994 2.472ZM113.095 19.808v-8.614h1.4l4.354 6.7h.049l-.049-1.66v-5.04H120v8.614h-1.202l-4.555-7.026h-.049l.049 1.66v5.366h-1.148Z"/><path fill="#fff" fill-rule="evenodd" d="M15.395 12.419c-.253.439-.395 1.012-.395 1.703v33.227c0 .692.143 1.265.395 1.704l18.316-18.318-18.316-18.316Zm.69 37.358c.694.423 1.664.382 2.733-.224l21.496-12.215-5.896-5.896-18.332 18.335Zm25.131-12.95 6.9-3.92c2.099-1.195 2.099-3.147 0-4.34l-6.903-3.922-6.088 6.09 6.091 6.091Zm-.904-12.694L18.818 11.919c-1.07-.607-2.039-.647-2.733-.224l18.333 18.333 5.894-5.895Z" clip-rule="evenodd"/></g><defs><clipPath id="a"><path fill="#fff" d="M0 .444h204v60.444H0z"/></clipPath></defs></svg>