<?xml version="1.0" standalone="no"?>
<!DOCTYPE svg PUBLIC "-//W3C//DTD SVG 1.1//EN" "http://www.w3.org/Graphics/SVG/1.1/DTD/svg11.dtd" >
<svg>
<metadata>
Created by FontForge 20120731 at Thu Jan 13 16:49:08 2022
 By ffonts
2020 Iconian Fonts
</metadata>
<defs>
<font id="BomberEscortItalic" horiz-adv-x="739" >
  <font-face 
    font-family="Bomber Escort Italic"
    font-weight="400"
    font-style="italic"
    font-stretch="normal"
    units-per-em="1000"
    panose-1="0 0 0 0 0 0 0 0 0 0"
    ascent="800"
    descent="-200"
    x-height="550"
    cap-height="550"
    bbox="-6 -133 1522.89 754"
    underline-thickness="50"
    underline-position="-75"
    unicode-range="U+0020-2122"
  />
<missing-glyph horiz-adv-x="500" 
 />
    <glyph glyph-name=".notdef" horiz-adv-x="500" 
 />
    <glyph glyph-name=".null" horiz-adv-x="0" 
 />
    <glyph glyph-name="nonmarkingreturn" horiz-adv-x="500" 
 />
    <glyph glyph-name="space" unicode=" " horiz-adv-x="299" 
 />
    <glyph glyph-name="space" unicode="&#xa0;" horiz-adv-x="299" 
 />
    <glyph glyph-name="FL0021h" unicode="!" horiz-adv-x="264" 
d="M374 550h-210l-89 -356h210zM66 155l-39 -155h210l39 155h-210z" />
    <glyph glyph-name="FL0022h" unicode="&#x22;" horiz-adv-x="513" 
d="M101 298l63 252h210l-38 -152q-3 -14 -15 -31t-27.5 -32.5t-32 -26t-29.5 -10.5h-131zM350 298l63 252h210l-38 -152q-3 -14 -15 -31t-27.5 -32.5t-32 -26t-29.5 -10.5h-131z" />
    <glyph glyph-name="FL0023h" unicode="#" 
d="M139 450l-38 -154h80l-11 -42h-80l-38 -154h80l-25 -100h210l25 100h104l-25 -100h210l25 100h81l38 154h-81l11 42h81l38 154h-81l25 100h-210l-25 -100h-104l25 100h-210l-25 -100h-80zM391 296h104l-11 -42h-104z" />
    <glyph glyph-name="FL0024h" unicode="$" horiz-adv-x="714" 
d="M228 -98l24 98h-146q-13 0 -24.5 10.5t-19 26t-10.5 32.5t0 31l23 93h210l-5 -21q-2 -6 1 -12t8 -6h220l-369 132q-11 8 -20.5 20t-9.5 27l29 117q3 13 15 30.5t27.5 33t32 26t29.5 10.5h146l25 99h210l-25 -99h146q13 0 24.5 -10.5t19 -26t10.5 -33t0 -30.5l-23 -93
h-210l5 21q2 6 -1 12t-8 6h-221l370 -132q14 -10 22 -21t8 -26l-29 -117q-3 -14 -15 -31t-27.5 -32.5t-32 -26t-29.5 -10.5h-146l-24 -98h-210z" />
    <glyph glyph-name="FL0025h" unicode="%" horiz-adv-x="1077" 
d="M993 0h-265q-9 0 -17 7t-13.5 16.5t-8 21t-0.5 20.5l43 173q2 8 10 19t18.5 21t22 17t20.5 7h265q9 0 17.5 -7t14.5 -17t8.5 -21t0.5 -19l-43 -173q-2 -9 -10.5 -20.5t-19 -21t-22.5 -16.5t-21 -7zM859 194l-21 -86h100l21 86h-100zM909 550l-399 -550h-208l400 550h207z
M409 248h-265q-9 0 -17 7t-13.5 16.5t-8 21t-0.5 20.5l43 173q2 8 10 19t18.5 21t22 17t20.5 7h265q9 0 17.5 -7t14.5 -17t8.5 -21t0.5 -19l-43 -173q-2 -9 -10.5 -20.5t-19 -21t-22.5 -16.5t-21 -7zM275 442l-21 -86h100l21 86h-100z" />
    <glyph glyph-name="FL0026h" unicode="&#x26;" horiz-adv-x="754" 
d="M815 352l-39 -154h-67l-49 -198h-554q-13 0 -24.5 10.5t-19 26t-10.5 32.5t0 31l27 108q1 6 9.5 15.5t19 19.5t21.5 19t17 13q-5 4 -11 12.5t-12 18t-9.5 19.5t-1.5 17l27 108q3 13 15 30.5t27.5 33t32 26t29.5 10.5h554l-39 -155h-409q-5 0 -10.5 -6t-7.5 -12l-51 -204
q-2 -6 1.5 -12t8.5 -6h199l10 42h-165l39 155h442z" />
    <glyph glyph-name="FL0027h" unicode="'" horiz-adv-x="264" 
d="M101 298l63 252h210l-38 -152q-3 -14 -15 -31t-27.5 -32.5t-32 -26t-29.5 -10.5h-131z" />
    <glyph glyph-name="FL0028h" unicode="(" horiz-adv-x="400" 
d="M106 0q-13 0 -24.5 10.5t-19 26t-10.5 32.5t0 31l87 350q3 13 15 30.5t27.5 33t32 26t29.5 10.5h267l-39 -155h-122q-5 0 -10.5 -6.5t-7.5 -11.5l-51 -204q-2 -6 1 -12t9 -6h122l-39 -155h-267z" />
    <glyph glyph-name="FL0029h" unicode=")" horiz-adv-x="400" 
d="M294 0q13 0 29.5 10.5t32 26t27.5 32.5t15 31l87 350q3 13 0 30.5t-10.5 33t-19 26t-24.5 10.5h-267l-39 -155h122q5 0 8.5 -6.5t1.5 -11.5l-51 -204q-2 -6 -7 -12t-11 -6h-122l-39 -155h267z" />
    <glyph glyph-name="asterisk" unicode="*" horiz-adv-x="277" 
d="M256 374l-11 42l-32 -42l-78 67l57 33l-49 12l54 91l37 -22l5 49h101l-25 -49l59 23l2 -92l-55 -12l39 -33z" />
    <glyph glyph-name="FL002Bh" unicode="+" horiz-adv-x="443" 
d="M115 352h117l29 117h154l-29 -117h118l-39 -154h-118l-29 -118h-154l29 118h-117z" />
    <glyph glyph-name="FL002Ch" unicode="," horiz-adv-x="264" 
d="M3 -97l63 252h210l-38 -152q-3 -14 -15 -31t-27.5 -32.5t-32 -26t-29.5 -10.5h-131z" />
    <glyph glyph-name="FL002Dh" unicode="-" horiz-adv-x="375" 
d="M115 352l-39 -154h321l39 154h-321z" />
    <glyph glyph-name="FL002Eh" unicode="." horiz-adv-x="264" 
d="M66 155l-39 -155h210l39 155h-210z" />
    <glyph glyph-name="FL002Fh" unicode="/" horiz-adv-x="534" 
d="M21 0h231l398 550h-231z" />
    <glyph glyph-name="FL0030h" unicode="0" 
d="M633 0q13 0 29.5 10.5t32 26t27.5 32.5t15 31l87 350q3 13 0 30.5t-10.5 33t-19 26t-24.5 10.5h-527q-13 0 -29.5 -10.5t-32 -26t-27.5 -33t-15 -30.5l-87 -350q-3 -14 0 -31t10.5 -32.5t19 -26t24.5 -10.5h527zM545 173q-2 -6 -7.5 -12t-10.5 -6h-237q-6 0 -9 6t-1 12
l51 204q2 5 7.5 11.5t10.5 6.5h237q5 0 8.5 -6t1.5 -12zM369 352l-39 -154h177l39 154h-177z" />
    <glyph glyph-name="FL0031h" unicode="1" horiz-adv-x="323" 
d="M86 0l110 441q-1 3 -9.5 14.5t-18.5 28t-18 34t-8 32.5h291l-137 -550h-210z" />
    <glyph glyph-name="FL0033h" unicode="2" horiz-adv-x="714" 
d="M687 0h-660l57 228q8 15 21.5 26t32.5 21l416 121h-204q-5 0 -11 -6t-8 -12l-5 -21h-210l23 93q3 13 15 30.5t27.5 33t32 26t29.5 10.5h502q13 0 24.5 -11t19 -26.5t10.5 -32.5t0 -30l-32 -128q-8 -15 -23.5 -27t-29.5 -20l-417 -121h218l10 39h210z" />
    <glyph glyph-name="FL003Ah" unicode="3" horiz-adv-x="691" 
d="M499 182q1 10 -6 15h-313l39 155h311q4 1 9 6t7 10l2 9q2 6 -1.5 12t-8.5 6h-413l39 155h558q13 0 24.5 -10.5t19 -26t10.5 -33t0 -30.5l-27 -108q-2 -7 -10 -17t-18.5 -19.5t-21 -18t-16.5 -12.5q4 -4 10.5 -13t12 -19t8.5 -19.5t2 -15.5l-27 -108q-3 -14 -15 -31
t-27.5 -32.5t-32 -26t-29.5 -10.5h-558l39 155h413q5 0 10.5 6t7.5 12z" />
    <glyph glyph-name="FL0034h" unicode="4" horiz-adv-x="787" 
d="M122 380q8 15 22 27t31 20l407 123h242l-60 -242h73l-39 -154h-73l-38 -153h-210l93 372l-222 -65h158l-39 -154h-402z" />
    <glyph glyph-name="FL0035h" unicode="5" horiz-adv-x="714" 
d="M106 0h502q13 0 29.5 10.5t32 26t27.5 32.5t15 31l29 117q0 15 -8 26t-22 21l-369 132h220q5 0 8 -6t1 -12l-5 -21h210l48 193h-660l-54 -217q0 -15 9.5 -27t20.5 -20l369 -132h-220q-5 0 -8 6t-1 12l5 21h-210l-23 -93q-3 -14 0 -31t10.5 -32.5t19 -26t24.5 -10.5z" />
    <glyph glyph-name="FL0036h" unicode="6" 
d="M633 0h-527q-13 0 -24.5 10.5t-19 26t-10.5 32.5t0 31l87 350q3 13 15 30.5t27.5 33t32 26t29.5 10.5h606l-39 -155h-461q-5 0 -10.5 -6.5t-7.5 -11.5l-6 -25h396q13 0 24.5 -10.5t19 -25.5t10.5 -32.5t0 -30.5l-38 -153q-3 -14 -15 -31t-27.5 -32.5t-32 -26t-29.5 -10.5
zM286 198l-6 -25q-2 -6 1 -12t9 -6h237q5 0 10.5 5t7.5 11l2 9q4 13 -9 18h-252z" />
    <glyph glyph-name="FL0037h" unicode="7" horiz-adv-x="714" 
d="M135 0l65 260q8 15 22.5 27t31.5 20l299 89h-217l-10 -39h-210l48 193h660l-56 -226q-8 -15 -23.5 -27t-30.5 -20l-324 -96l-45 -181h-210z" />
    <glyph glyph-name="FL0038h" unicode="8" 
d="M243 550h527q13 0 24.5 -10.5t19 -26t10.5 -33t0 -30.5l-27 -108q-2 -7 -10 -17t-18.5 -19.5t-21 -18t-16.5 -12.5q4 -4 10.5 -13t12 -19t8.5 -19.5t2 -15.5l-27 -108q-3 -14 -15 -31t-27.5 -32.5t-32 -26t-29.5 -10.5h-527q-13 0 -24.5 10.5t-19 26t-10.5 32.5t0 31
l27 108q1 6 9.5 15.5t19 19.5t21.5 19t17 13q-5 4 -11 12.5t-12 18t-9.5 19.5t-1.5 17l27 108q3 13 15 30.5t27.5 33t32 26t29.5 10.5zM547 182q1 10 -6 15h-207l39 155h205q4 1 9 6t7 10l2 9q2 6 -1.5 12t-8.5 6h-237q-5 0 -10.5 -6t-7.5 -12l-51 -204q-2 -6 1.5 -12
t8.5 -6h237q5 0 10.5 6t7.5 12z" />
    <glyph glyph-name="FL0039h" unicode="9" 
d="M243 550h527q13 0 24.5 -10.5t19 -26t10.5 -33t0 -30.5l-87 -350q-3 -14 -15 -31t-27.5 -32.5t-32 -26t-29.5 -10.5h-606l39 155h461q5 0 10.5 6.5t7.5 11.5l6 25h-396q-13 0 -24.5 10.5t-19 25.5t-10.5 32t0 31l38 153q3 13 15 30.5t27.5 33t32 26t29.5 10.5zM590 352
l6 25q2 6 -1 12t-9 6h-237q-5 0 -10.5 -5t-7.5 -11l-2 -9q-2 -13 9 -18h252z" />
    <glyph glyph-name="FL003Bh" unicode=":" horiz-adv-x="264" 
d="M66 155l-39 -155h210l39 155h-210zM132 423l-38 -155h210l38 155h-210z" />
    <glyph glyph-name="FL003Dh" unicode=";" horiz-adv-x="264" 
d="M94 268l38 155h210l-38 -155h-210zM3 -97l63 252h210l-38 -152q-3 -14 -15 -31t-27.5 -32.5t-32 -26t-29.5 -10.5h-131z" />
    <glyph glyph-name="FL003Ch" unicode="&#x3c;" horiz-adv-x="514" 
d="M262 0h231l-162 275l299 275h-251l-289 -275z" />
    <glyph glyph-name="FL0878h" unicode="=" horiz-adv-x="375" 
d="M90 254l-38 -154h321l38 154h-321zM139 450l-38 -154h321l38 154h-321z" />
    <glyph glyph-name="FL003Eh" unicode="&#x3e;" horiz-adv-x="513" 
d="M561 275l-172 275h-231l162 -275l-299 -275h251z" />
    <glyph glyph-name="FL003Fh" unicode="?" horiz-adv-x="714" 
d="M326 357h-210l23 93q3 13 15 30.5t27.5 33t32 26t29.5 10.5h502q13 0 24.5 -10.5t19 -26t10.5 -33t0 -30.5l-31 -125q-8 -15 -23.5 -27t-30.5 -20l-282 -84h-249l17 66q8 15 22.5 27t31.5 20l299 89h-203q-5 0 -11 -6t-8 -11zM135 0l39 155h210l-39 -155h-210z" />
    <glyph glyph-name="FL0A74h" unicode="@" horiz-adv-x="906" 
d="M832 127q13 0 29.5 10.5t32 26t27.5 32.5t15 31l70 282q3 13 0 30.5t-10.5 33t-19 26t-24.5 10.5h-694q-13 0 -29.5 -10.5t-32 -26t-27.5 -33t-15 -30.5l-117 -470q-3 -14 0 -31t10.5 -32.5t19 -26t24.5 -10.5h773l37 151h-634q-6 0 -8.5 6t-0.5 12l83 332q1 5 7 11.5
t11 6.5h416q5 0 8 -6.5t2 -11.5l-44 -175q-2 -6 -7 -12t-11 -6h-20l27 110q2 8 -0.5 19t-8.5 21t-14.5 17t-17.5 7h-261q-9 0 -21 -7t-23 -17t-19.5 -21t-10.5 -19l-41 -165q-2 -9 1 -20.5t9 -21t14.5 -16.5t17.5 -7h477zM488 301h82l-13 -54h-82z" />
    <glyph glyph-name="FL0041h" unicode="A" horiz-adv-x="800" 
d="M568 0h211l-130 550h-358q0 -15 8 -32.5t18 -34t18.5 -28t9.5 -14.5l-324 -441h231l48 66h252zM493 333l25 -113h-107z" />
    <glyph glyph-name="FL0042h" unicode="B" horiz-adv-x="797" 
d="M142 550q1 -14 8.5 -31t17 -32.5t17.5 -27.5t10 -16l-110 -443h606q13 0 29.5 10.5t32 26t27.5 32.5t15 31l27 108q1 6 -2 15.5t-8.5 19.5t-12 19t-10.5 13q6 4 16.5 12.5t21 18t18.5 19.5t10 17l27 108q3 13 0 30.5t-10.5 33t-19 26t-24.5 10.5h-686zM605 182l-2 -9
q-2 -6 -7.5 -12t-10.5 -6h-251l59 240h251q5 0 8.5 -6t1.5 -12l-2 -9q-2 -5 -7 -10t-9 -6h-205l-39 -155h207q7 -5 6 -15z" />
    <glyph glyph-name="FL0043h" unicode="C" 
d="M633 0h-527q-13 0 -24.5 10.5t-19 26t-10.5 32.5t0 31l87 350q3 13 15 30.5t27.5 33t32 26t29.5 10.5h527q13 0 24.5 -10.5t19 -26t10.5 -33t0 -30.5l-27 -111h-210l9 38q2 6 -1.5 12t-8.5 6h-237q-5 0 -10.5 -6.5t-7.5 -11.5l-51 -204q-2 -6 1 -12t9 -6h237q5 0 10.5 6
t7.5 12l10 38h210l-28 -111q-3 -14 -15 -31t-27.5 -32.5t-32 -26t-29.5 -10.5z" />
    <glyph glyph-name="FL0044h" unicode="D" horiz-adv-x="797" 
d="M85 0h605q13 0 30 10.5t32.5 26.5t27.5 33t15 31l87 348q3 13 0 30.5t-11 33.5t-19.5 26.5t-24.5 10.5h-685q1 -14 8.5 -31t17 -32.5t17.5 -27.5t10 -16zM603 174q-2 -6 -8 -12.5t-11 -6.5h-250l59 240h250q5 0 9 -6.5t2 -12.5z" />
    <glyph glyph-name="FL0045h" unicode="E" horiz-adv-x="749" 
d="M85 0h637l39 155h-425l10 43h321l39 154h-321l10 43h425l39 155h-717q1 -14 8.5 -31t17 -32.5t17.5 -27.5t10 -16z" />
    <glyph glyph-name="FL0046h" unicode="F" horiz-adv-x="691" 
d="M239 0l49 198h321l39 154h-321l10 43h425l39 155h-637l-170 -683q11 0 33 8.5t48 21.5t54 29t51 30.5t39 26.5t18 17h2z" />
    <glyph glyph-name="FL0047h" unicode="G" horiz-adv-x="738" 
d="M468 -133q11 0 33 8.5t48 21.5t54 29t51 30.5t39 26.5t18 17l88 352h-392l-39 -154h182l-6 -25q-2 -6 -7.5 -12t-10.5 -6h-236q-6 0 -9 6t-1 12l51 204q2 5 7.5 11.5t10.5 6.5h460l39 155h-605q-13 0 -29.5 -10.5t-32 -26t-27.5 -33t-15 -30.5l-87 -350q-3 -14 0 -31
t10.5 -32.5t19 -26t24.5 -10.5h395z" />
    <glyph glyph-name="FL0048h" unicode="H" horiz-adv-x="802" 
d="M300 0l49 197h265l-49 -197h210l137 550h-210l-49 -197h-265l49 197h-290q1 -14 8.5 -31t17 -32.5t17.5 -27.5t10 -16l-110 -443h210z" />
    <glyph glyph-name="FL0049h" unicode="I" horiz-adv-x="264" 
d="M-6 -133q11 0 33 8.5t48 21.5t54 29t51 30.5t39 26.5t18 17l137 550h-210z" />
    <glyph glyph-name="FL004Ah" unicode="J" horiz-adv-x="636" 
d="M530 0q13 0 29.5 10.5t32 26t27.5 32.5t15 31l112 450h-291q0 -15 9 -33.5t19 -34.5t18 -28t8 -13l-67 -268q-2 -6 -7.5 -12t-10.5 -6h-358l-39 -155h503z" />
    <glyph glyph-name="FL004Bh" unicode="K" horiz-adv-x="795" 
d="M543 0l-120 198h-79l-49 -198h-210l110 443q-2 4 -10 16t-17.5 27.5t-17 32.5t-8.5 31h290l-49 -198h59l218 198h251l-301 -275l164 -275h-231z" />
    <glyph glyph-name="FL004Ch" unicode="L" horiz-adv-x="694" 
d="M432 550h-290q1 -14 8.5 -31t17 -32.5t17.5 -27.5t10 -16l-110 -443h582l39 155h-372z" />
    <glyph glyph-name="FL004Dh" unicode="M" horiz-adv-x="940" 
d="M544 0h-148l-90 276l-69 -276h-1q-2 -5 -17.5 -17t-39 -26.5t-51 -30.5t-53.5 -29t-48 -21.5t-33 -8.5l170 683h264l93 -278l231 278h298l-137 -550h-210l69 276z" />
    <glyph glyph-name="FL004Eh" unicode="N" horiz-adv-x="738" 
d="M571 279l-216 271h-191l-170 -683q11 0 33 8.5t48 21.5t53.5 29t51 30.5t39 26.5t17.5 17h1l68 271l214 -271h192l137 550h-210z" />
    <glyph glyph-name="FL004Fh" unicode="O" 
d="M633 0q13 0 29.5 10.5t32 26t27.5 32.5t15 31l87 350q3 13 0 30.5t-10.5 33t-19 26t-24.5 10.5h-527q-13 0 -29.5 -10.5t-32 -26t-27.5 -33t-15 -30.5l-87 -350q-3 -14 0 -31t10.5 -32.5t19 -26t24.5 -10.5h527zM545 173q-2 -6 -7.5 -12t-10.5 -6h-237q-6 0 -9 6t-1 12
l51 204q2 5 7.5 11.5t10.5 6.5h237q5 0 8.5 -6t1.5 -12z" />
    <glyph glyph-name="FL0050h" unicode="P" 
d="M668 141q13 0 29.5 10.5t32 26t27.5 32.5t15 31l52 209q3 13 0 30.5t-10.5 33t-19 26t-24.5 10.5h-606l-170 -683q11 0 33 8.5t48 21.5t54 29t51 30.5t39 26.5t18 17l98 395h251q5 0 8.5 -6t1.5 -12l-16 -66q-2 -6 -7.5 -11t-10.5 -5h-203l-39 -154h348z" />
    <glyph glyph-name="FL0051h" unicode="Q" 
d="M633 0q13 0 29.5 10.5t32 26t27.5 32.5t15 31l87 350q3 13 0 30.5t-10.5 33t-19 26t-24.5 10.5h-527q-13 0 -29.5 -10.5t-32 -26t-27.5 -33t-15 -30.5l-87 -350q-3 -14 0 -31t10.5 -32.5t19 -26t24.5 -10.5h160l-33 -133q11 0 33 8.5t48 21.5t54 29t51 30.5t39 26.5
t18 17h157zM545 173q-2 -6 -7.5 -12t-10.5 -6h-237q-6 0 -9 6t-1 12l51 204q2 5 7.5 11.5t10.5 6.5h237q5 0 8.5 -6t1.5 -12z" />
    <glyph glyph-name="FL0052h" unicode="R" 
d="M824 450q3 13 0 30.5t-10.5 33t-19 26t-24.5 10.5h-606l-170 -683q11 0 33 8.5t48 21.5t54 29t51 30.5t39 26.5t18 17l98 395h251q5 0 8.5 -6.5t1.5 -11.5l-16 -64q-5 -18 -18 -18h-203l-23 -91l166 -204h239l-121 150h10q38 1 63.5 9.5t42.5 24.5t27.5 40t18.5 56z" />
    <glyph glyph-name="FL0053h" unicode="S" horiz-adv-x="714" 
d="M106 0h502q13 0 29.5 10.5t32 26t27.5 32.5t15 31l29 116q0 15 -8.5 26t-21.5 21l-369 133h220q5 0 8 -6t1 -12l-5 -21h210l23 93q3 13 0 30.5t-10.5 33t-19 26t-24.5 10.5h-502q-13 0 -29.5 -10.5t-32 -26t-27.5 -33t-15 -30.5l-29 -116q0 -15 10 -27t21 -20l368 -133
h-220q-5 0 -8 6t-1 12l5 21h-210l-23 -93q-3 -14 0 -31t10.5 -32.5t19 -26t24.5 -10.5z" />
    <glyph glyph-name="FL0054h" unicode="T" horiz-adv-x="740" 
d="M232 -133q11 0 33 8.5t48 21.5t54 29t51 30.5t39 26.5t18 17l98 395h238l39 155h-686l-39 -155h238z" />
    <glyph glyph-name="FL00A7h" unicode="U" horiz-adv-x="797" 
d="M164 0h527q13 0 29.5 10.5t32 26t27.5 32.5t15 31l112 450h-210l-94 -377q-2 -6 -7.5 -12t-10.5 -6h-237q-5 0 -8.5 6t-1.5 12l94 377h-290q1 -14 8.5 -31t17 -32.5t17.5 -27.5t10 -16l-85 -343q-3 -14 0 -31t10.5 -32.5t19 -26t24.5 -10.5z" />
    <glyph glyph-name="FL0056h" unicode="V" horiz-adv-x="775" 
d="M158 550l125 -550h210l398 550h-231l-228 -328l-63 328h-211z" />
    <glyph glyph-name="FL0057h" unicode="W" horiz-adv-x="1074" 
d="M454 550l46 -231l-68 -97l-63 328h-211l125 -550h205l73 98l26 -98h205l398 550h-231l-228 -328l-66 328h-211z" />
    <glyph glyph-name="FL005Ch" unicode="X" horiz-adv-x="744" 
d="M492 0h231l-162 275l299 275h-251l-143 -131l-77 131h-231l162 -275l-299 -275h251l143 131z" />
    <glyph glyph-name="FL0059h" unicode="Y" horiz-adv-x="731" 
d="M227 -133q11 0 33 8.5t48 21.5t54 29t51 30.5t39 26.5t18 17l68 274l309 276h-251l-136 -130l-71 130h-231l171 -275z" />
    <glyph glyph-name="FL005Ah" unicode="Z" horiz-adv-x="714" 
d="M27 0l56 226q8 15 22.5 27t31.5 20l416 123h-217l-10 -39h-210l48 193h660l-56 -226q-8 -15 -23.5 -27t-30.5 -20l-416 -123h217l10 39h210l-48 -193h-660z" />
    <glyph glyph-name="FL005Eh" unicode="[" horiz-adv-x="400" 
d="M373 0h-346l137 550h346l-39 -155h-136l-59 -240h136z" />
    <glyph glyph-name="FL005Dh" unicode="\" horiz-adv-x="514" 
d="M158 550l125 -550h210l-124 550h-211z" />
    <glyph glyph-name="FL005Fh" unicode="]" horiz-adv-x="400" 
d="M27 0h346l137 550h-346l-39 -155h136l-59 -240h-136z" />
    <glyph glyph-name="FL0793h" unicode="^" 
d="M770 550q13 0 24.5 -10.5t19 -26t10.5 -33t0 -30.5l-112 -450h-210l35 141h-217l39 154h217l20 82q2 6 -1.5 12t-8.5 6h-237q-5 0 -10.5 -6t-7.5 -12l-94 -377h-210l112 450q3 13 15 30.5t27.5 33t32 26t29.5 10.5h527z" />
    <glyph glyph-name="FL0C2Ah" unicode="_" horiz-adv-x="555" 
d="M66 155l-39 -155h501l39 155h-501z" />
    <glyph glyph-name="FL0EDBh" unicode="`" horiz-adv-x="240" 
d="M362 599l-62 155h-205l81 -155h186z" />
    <glyph glyph-name="FL0061h" unicode="a" horiz-adv-x="800" 
d="M568 0h211l-130 550h-223l-405 -550h231l48 66h252zM493 333l25 -113h-107z" />
    <glyph glyph-name="FL0062h" unicode="b" 
d="M164 550l-137 -550h606q13 0 29.5 10.5t32 26t27.5 32.5t15 31l27 108q1 6 -2 15.5t-8.5 19.5t-12 19t-10.5 13q6 4 16.5 12.5t21 18t18.5 19.5t10 17l27 108q3 13 0 30.5t-10.5 33t-19 26t-24.5 10.5h-606zM547 182l-2 -9q-2 -6 -7.5 -12t-10.5 -6h-251l59 240h251
q5 0 8.5 -6t1.5 -12l-2 -9q-2 -5 -7 -10t-9 -6h-205l-39 -155h207q7 -5 6 -15z" />
    <glyph glyph-name="FL0067h" unicode="c" 
d="M633 0h-527q-13 0 -24.5 10.5t-19 26t-10.5 32.5t0 31l87 350q3 13 15 30.5t27.5 33t32 26t29.5 10.5h527q13 0 24.5 -10.5t19 -26t10.5 -33t0 -30.5l-27 -111h-210l9 38q2 6 -1.5 12t-8.5 6h-237q-5 0 -10.5 -6.5t-7.5 -11.5l-51 -204q-2 -6 1 -12t9 -6h237q5 0 10.5 6
t7.5 12l10 38h210l-28 -111q-3 -14 -15 -31t-27.5 -32.5t-32 -26t-29.5 -10.5z" />
    <glyph glyph-name="FL09ECh" unicode="d" 
d="M27 0h605q13 0 30 10.5t32.5 26.5t27.5 33t15 31l87 348q3 13 0 30.5t-11 33.5t-19.5 26.5t-24.5 10.5h-605zM545 174q-2 -6 -8 -12.5t-11 -6.5h-250l59 240h250q5 0 9 -6.5t2 -12.5z" />
    <glyph glyph-name="FL0065h" unicode="e" horiz-adv-x="691" 
d="M27 0h637l39 155h-425l10 43h321l39 154h-321l10 43h425l39 155h-637z" />
    <glyph glyph-name="FL0066h" unicode="f" horiz-adv-x="691" 
d="M27 0h212l49 198h321l39 154h-321l10 43h425l39 155h-637z" />
    <glyph glyph-name="FL006Bh" unicode="g" 
d="M633 0q13 0 29.5 10.5t32 26t27.5 32.5t15 31l63 252h-393l-39 -154h183l-6 -25q-2 -6 -7.5 -12t-10.5 -6h-237q-6 0 -9 6t-1 12l51 204q2 5 7.5 11.5t10.5 6.5h461l39 155h-606q-13 0 -29.5 -10.5t-32 -26t-27.5 -33t-15 -30.5l-87 -350q-3 -14 0 -31t10.5 -32.5t19 -26
t24.5 -10.5h527z" />
    <glyph glyph-name="FL0068h" unicode="h" 
d="M237 0l49 197h265l-49 -197h210l137 550h-210l-49 -197h-265l49 197h-210l-137 -550h210z" />
    <glyph glyph-name="FL0069h" unicode="i" horiz-adv-x="264" 
d="M374 550h-210l-137 -550h210z" />
    <glyph glyph-name="FL006Ah" unicode="j" horiz-adv-x="636" 
d="M530 0q13 0 29.5 10.5t32 26t27.5 32.5t15 31l112 450h-210l-94 -377q-2 -6 -7.5 -12t-10.5 -6h-358l-39 -155h503z" />
    <glyph glyph-name="FL00AAh" unicode="k" horiz-adv-x="737" 
d="M485 0l-120 198h-79l-49 -198h-210l137 550h210l-49 -198h59l218 198h251l-301 -275l164 -275h-231z" />
    <glyph glyph-name="FL006Ch" unicode="l" horiz-adv-x="636" 
d="M374 550h-210l-137 -550h582l39 155h-372z" />
    <glyph glyph-name="FL006Dh" unicode="m" horiz-adv-x="940" 
d="M544 0l228 276l-69 -276h210l137 550h-298l-231 -278l-93 278h-264l-137 -550h210l69 276l90 -276h148z" />
    <glyph glyph-name="FL006Eh" unicode="n" horiz-adv-x="738" 
d="M571 279l-216 271h-191l-137 -550h210l68 271l214 -271h192l137 550h-210z" />
    <glyph glyph-name="FL0076h" unicode="o" 
d="M633 0q13 0 29.5 10.5t32 26t27.5 32.5t15 31l87 350q3 13 0 30.5t-10.5 33t-19 26t-24.5 10.5h-527q-13 0 -29.5 -10.5t-32 -26t-27.5 -33t-15 -30.5l-87 -350q-3 -14 0 -31t10.5 -32.5t19 -26t24.5 -10.5h527zM545 173q-2 -6 -7.5 -12t-10.5 -6h-237q-6 0 -9 6t-1 12
l51 204q2 5 7.5 11.5t10.5 6.5h237q5 0 8.5 -6t1.5 -12z" />
    <glyph glyph-name="FL0070h" unicode="p" 
d="M668 141q13 0 29.5 10.5t32 26t27.5 32.5t15 31l52 209q3 13 0 30.5t-10.5 33t-19 26t-24.5 10.5h-606l-137 -550h210l98 395h251q5 0 8.5 -6t1.5 -12l-16 -66q-2 -6 -7.5 -11t-10.5 -5h-203l-39 -154h348z" />
    <glyph glyph-name="FL007Ch" unicode="q" 
d="M633 0h-157q-2 -5 -18 -17t-39 -26.5t-51 -30.5t-54 -29t-48 -21.5t-33 -8.5l33 133h-160q-13 0 -24.5 10.5t-19 26t-10.5 32.5t0 31l87 350q3 13 15 30.5t27.5 33t32 26t29.5 10.5h527q13 0 24.5 -10.5t19 -26t10.5 -33t0 -30.5l-87 -350q-3 -14 -15 -31t-27.5 -32.5
t-32 -26t-29.5 -10.5zM573 288l22 89q2 6 -1 12t-8 6h-237q-5 0 -10.5 -6.5t-7.5 -11.5l-51 -204q-2 -6 1 -12t9 -6h28q2 8 17 20.5t37.5 27.5t50.5 30t56 27.5t52.5 20t41.5 7.5z" />
    <glyph glyph-name="FL0072h" unicode="r" 
d="M824 450q3 13 0 30.5t-10.5 33t-19 26t-24.5 10.5h-606l-137 -550h210l98 395h251q5 0 8.5 -6.5t1.5 -11.5l-16 -64q-5 -18 -18 -18h-203l-23 -91l166 -204h239l-121 150h10q38 1 63.5 9.5t42.5 24.5t27.5 40t18.5 56z" />
    <glyph glyph-name="FL0073h" unicode="s" horiz-adv-x="714" 
d="M106 0h502q13 0 29.5 10.5t32 26t27.5 32.5t15 31l29 117q0 15 -8 26t-22 21l-369 132h220q5 0 8 -6t1 -12l-5 -21h210l23 93q3 13 0 30.5t-10.5 33t-19 26t-24.5 10.5h-502q-13 0 -29.5 -10.5t-32 -26t-27.5 -33t-15 -30.5l-29 -117q0 -15 9.5 -27t20.5 -20l369 -132
h-220q-5 0 -8 6t-1 12l5 21h-210l-23 -93q-3 -14 0 -31t10.5 -32.5t19 -26t24.5 -10.5z" />
    <glyph glyph-name="FL0074h" unicode="t" horiz-adv-x="740" 
d="M265 0h210l98 395h238l39 155h-686l-39 -155h238z" />
    <glyph glyph-name="FL0075h" unicode="u" 
d="M106 0h527q13 0 29.5 10.5t32 26t27.5 32.5t15 31l112 450h-210l-94 -377q-2 -6 -7.5 -12t-10.5 -6h-237q-5 0 -8.5 6t-1.5 12l94 377h-210l-112 -450q-3 -14 0 -31t10.5 -32.5t19 -26t24.5 -10.5z" />
    <glyph glyph-name="v" unicode="v" horiz-adv-x="775" 
d="M158 550l125 -550h210l398 550h-231l-228 -328l-63 328h-211z" />
    <glyph glyph-name="FL0077h" unicode="w" horiz-adv-x="1074" 
d="M454 550l46 -231l-68 -97l-63 328h-211l125 -550h205l73 98l26 -98h205l398 550h-231l-228 -328l-66 328h-211z" />
    <glyph glyph-name="FL0058h" unicode="x" horiz-adv-x="744" 
d="M492 0h231l-162 275l299 275h-251l-143 -131l-77 131h-231l162 -275l-299 -275h251l143 131z" />
    <glyph glyph-name="FL007Bh" unicode="y" horiz-adv-x="731" 
d="M389 550l71 -130l136 130h251l-309 -276l-68 -274h-210l69 275l-171 275h231z" />
    <glyph glyph-name="FL007Ah" unicode="z" horiz-adv-x="714" 
d="M27 0l56 226q8 15 22.5 27t31.5 20l416 123h-217l-10 -39h-210l48 193h660l-56 -226q-8 -15 -23.5 -27t-30.5 -20l-416 -123h217l10 39h210l-48 -193h-660z" />
    <glyph glyph-name="FL0064h" unicode="{" 
d="M680 550h-516l-137 -550h516q47 0 85.5 24.5t68.5 64t51 88.5t33 98t15.5 98t-6.5 88.5t-36.5 64t-73.5 24.5zM335 395h203q18 0 27.5 -9.5t13 -25t1.5 -35t-7 -39.5l-5 -22q-5 -20 -12.5 -39.5t-18.5 -35t-25.5 -25t-32.5 -9.5h-203z" />
    <glyph glyph-name="FL0080h" unicode="|" horiz-adv-x="323" 
d="M53 -133q11 0 33 8.5t48 21.5t54 29t51 30.5t39 26.5t18 17l137 550h-291q0 -15 8 -32.5t18 -34t18.5 -28t9.5 -14.5z" />
    <glyph glyph-name="FL006Fh" unicode="}" horiz-adv-x="750" 
d="M691 550h-358q-47 0 -85.5 -24.5t-68 -64t-50.5 -88.5t-33 -98t-16 -98t6 -88.5t36.5 -64t73.5 -24.5h358q47 0 85.5 24.5t68.5 64t51 88.5t33 98t15.5 98t-6.5 88.5t-36.5 64t-73.5 24.5zM338 155q-18 0 -27.5 9.5t-13 25t-1.5 35t7 39.5l5 22q5 20 13 39.5t19 35t25 25
t32 9.5h152q18 0 27.5 -9.5t13 -25t1.5 -35t-7 -39.5l-5 -22q-5 -20 -12.5 -39.5t-18.5 -35t-25.5 -25t-32.5 -9.5h-152z" />
    <glyph glyph-name="FL007Eh" unicode="~" horiz-adv-x="797" 
d="M630 279l-216 271h-272q0 -15 8 -32.5t18 -34t18.5 -28t9.5 -14.5l-110 -441h210l68 271l214 -271h192l137 550h-210z" />
    <glyph glyph-name="FL007Fh" horiz-adv-x="166" 
 />
    <glyph glyph-name="FL20ACh" unicode="&#x20ac;" horiz-adv-x="820" 
d="M139 450l-38 -154h110l-11 -42h-110l-38 -154h110q-3 -14 0 -31t10.5 -32.5t19 -26t24.5 -10.5h498q13 0 29.5 10.5t32 26t27.5 32.5t15 31l28 111h-210l-10 -38q-2 -6 -7.5 -12t-10.5 -6h-208q-6 0 -9 6t-1 12l51 204q2 5 7.5 11.5t10.5 6.5h208q5 0 8.5 -6t1.5 -12
l-9 -38h210l27 111q3 13 0 30.5t-10.5 33t-19 26t-24.5 10.5h-498q-13 0 -29.5 -10.5t-32 -26t-27.5 -33t-15 -30.5h-110z" />
    <glyph glyph-name="FL201Ah" unicode="&#x201a;" horiz-adv-x="264" 
d="M3 -97l63 252h210l-38 -152q-3 -14 -15 -31t-27.5 -32.5t-32 -26t-29.5 -10.5h-131z" />
    <glyph glyph-name="FL0192h" unicode="&#x192;" horiz-adv-x="750" 
d="M86 0l110 441q0 1 -8 13t-18 28t-19 34.5t-9 33.5h718l-39 -155h-425l-10 -43h321l-39 -154h-321l-49 -198h-212z" />
    <glyph glyph-name="FL201Eh" unicode="&#x201e;" horiz-adv-x="513" 
d="M3 -97l63 252h210l-38 -152q-3 -14 -15 -31t-27.5 -32.5t-32 -26t-29.5 -10.5h-131zM252 -97l63 252h210l-38 -152q-3 -14 -15 -31t-27.5 -32.5t-32 -26t-29.5 -10.5h-131z" />
    <glyph glyph-name="FL0601h" unicode="&#x2026;" horiz-adv-x="754" 
d="M311 155l-39 -155h210l39 155h-210zM66 155l-39 -155h210l39 155h-210zM556 155l-39 -155h210l39 155h-210z" />
    <glyph glyph-name="FL2020h" unicode="&#x2020;" horiz-adv-x="425" 
d="M139 450l-38 -154h80l-74 -296h210l74 296h81l38 154h-81l25 100h-210l-25 -100h-80z" />
    <glyph glyph-name="FL2021h" unicode="&#x2021;" horiz-adv-x="425" 
d="M139 450l-38 -154h80l-11 -42h-80l-38 -154h80l-25 -100h210l25 100h81l38 154h-81l11 42h81l38 154h-81l25 100h-210l-25 -100h-80z" />
    <glyph glyph-name="FL02C6h" unicode="&#x2c6;" horiz-adv-x="533" 
d="M334 754l-158 -155h198l56 58l27 -58h198l-80 155h-241z" />
    <glyph glyph-name="FL2030h" unicode="&#x2030;" horiz-adv-x="1490" 
d="M993 0h-265q-9 0 -17 7t-13.5 16.5t-8 21t-0.5 20.5l43 173q2 8 10 19t18.5 21t22 17t20.5 7h265q9 0 17.5 -7t14.5 -17t8.5 -21t0.5 -19l-43 -173q-2 -9 -10.5 -20.5t-19 -21t-22.5 -16.5t-21 -7zM859 194l-21 -86h100l21 86h-100zM909 550l-399 -550h-208l400 550h207z
M409 248h-265q-9 0 -17 7t-13.5 16.5t-8 21t-0.5 20.5l43 173q2 8 10 19t18.5 21t22 17t20.5 7h265q9 0 17.5 -7t14.5 -17t8.5 -21t0.5 -19l-43 -173q-2 -9 -10.5 -20.5t-19 -21t-22.5 -16.5t-21 -7zM275 442l-21 -86h100l21 86h-100zM1406 0h-265q-9 0 -17 7t-13.5 16.5
t-8 21t-0.5 20.5l43 173q2 8 10 19t18.5 21t22 17t20.5 7h265q9 0 17.5 -7t14.5 -17t8.5 -21t0.5 -19l-43 -173q-2 -9 -10.5 -20.5t-19 -21t-22.5 -16.5t-21 -7zM1272 194l-21 -86h100l21 86h-100z" />
    <glyph glyph-name="FL0160h" unicode="&#x160;" horiz-adv-x="714" 
d="M626 599l158 155h-198l-55 -58l-28 58h-198l80 -155h241zM106 0h502q13 0 29.5 10.5t32 26t27.5 32.5t15 31l29 117q0 15 -8 26t-22 21l-369 132h220q5 0 8 -6t1 -12l-5 -21h210l23 93q3 13 0 30.5t-10.5 33t-19 26t-24.5 10.5h-502q-13 0 -29.5 -10.5t-32 -26t-27.5 -33
t-15 -30.5l-29 -117q0 -15 9.5 -27t20.5 -20l369 -132h-220q-5 0 -8 6t-1 12l5 21h-210l-23 -93q-3 -14 0 -31t10.5 -32.5t19 -26t24.5 -10.5z" />
    <glyph glyph-name="FL2039h" unicode="&#x2039;" horiz-adv-x="209" 
d="M65 154l126 -119l49 198l-48 41l69 42l49 198l-185 -119z" />
    <glyph glyph-name="FL0152h" unicode="&#x152;" horiz-adv-x="1154" 
d="M106 0q-13 0 -24.5 10.5t-19 26t-10.5 32.5t0 31l87 350q3 13 15 30.5t27.5 33t32 26t29.5 10.5h1021l-39 -155h-425l-10 -43h321l-39 -154h-321l-10 -43h425l-39 -155h-1021zM588 395h-239q-5 0 -10.5 -6.5t-7.5 -11.5l-51 -204q-2 -6 1 -12t9 -6h239z" />
    <glyph glyph-name="FL017Dh" unicode="&#x17d;" horiz-adv-x="714" 
d="M385 599l-80 155h198l28 -58l55 58h198l-158 -155h-241zM27 0l56 226q8 15 22.5 27t31.5 20l416 123h-217l-10 -39h-210l48 193h660l-56 -226q-8 -15 -23.5 -27t-30.5 -20l-416 -123h217l10 39h210l-48 -193h-660z" />
    <glyph glyph-name="FL2018h" unicode="&#x2018;" horiz-adv-x="264" 
d="M374 550l-63 -252h-210l38 152q3 13 15 30.5t27.5 33t32 26t29.5 10.5h131z" />
    <glyph glyph-name="FL2019h" unicode="&#x2019;" horiz-adv-x="264" 
d="M101 298l63 252h210l-38 -152q-3 -14 -15 -31t-27.5 -32.5t-32 -26t-29.5 -10.5h-131z" />
    <glyph glyph-name="FL201Ch" unicode="&#x201c;" horiz-adv-x="513" 
d="M623 550l-63 -252h-210l38 152q3 13 15 30.5t27.5 33t32 26t29.5 10.5h131zM374 550l-63 -252h-210l38 152q3 13 15 30.5t27.5 33t32 26t29.5 10.5h131z" />
    <glyph glyph-name="FL201Dh" unicode="&#x201d;" horiz-adv-x="513" 
d="M101 298l63 252h210l-38 -152q-3 -14 -15 -31t-27.5 -32.5t-32 -26t-29.5 -10.5h-131zM350 298l63 252h210l-38 -152q-3 -14 -15 -31t-27.5 -32.5t-32 -26t-29.5 -10.5h-131z" />
    <glyph glyph-name="FL2022h" unicode="&#x2022;" horiz-adv-x="714" 
d="M608 0q13 0 29.5 10.5t32 26t27.5 32.5t15 31l87 350q3 13 0 30.5t-10.5 33t-19 26t-24.5 10.5h-502q-13 0 -29.5 -10.5t-32 -26t-27.5 -33t-15 -30.5l-87 -350q-3 -14 0 -31t10.5 -32.5t19 -26t24.5 -10.5h502z" />
    <glyph glyph-name="FL2013h" unicode="&#x2013;" horiz-adv-x="375" 
d="M115 352l-39 -154h321l39 154h-321z" />
    <glyph glyph-name="FL2014h" unicode="&#x2014;" horiz-adv-x="443" 
d="M115 352h389l-39 -154h-389z" />
    <glyph glyph-name="FL02DCh" unicode="&#x2dc;" horiz-adv-x="542" 
d="M664 599l158 155h-198l-54 -57l-29 57h-207l-158 -155h198l54 56l29 -56h207z" />
    <glyph glyph-name="FL2122h" unicode="&#x2122;" horiz-adv-x="361" 
d="M328 604h19q3 0 7.5 -5.5t9 -14t8.5 -18t4 -16.5v-8q1 -23 3 -37q5 7 8.5 14.5t8.5 17.5q37 67 76 67h13l-42 -168h-29l24 96l-3.5 -3.5t-3.5 -4.5h1l-27 -43q-12 -17 -18 -26t-10 -13.5t-6.5 -5t-6.5 -0.5q-7 0 -11 1t-4 11l-12 84l-24 -96h-27zM164 570l9 34h141
l-9 -34h-54l-33 -134h-34l33 134h-53z" />
    <glyph glyph-name="FL0161h" unicode="&#x161;" horiz-adv-x="714" 
d="M626 599l158 155h-198l-55 -58l-28 58h-198l80 -155h241zM106 0h502q13 0 29.5 10.5t32 26t27.5 32.5t15 31l29 117q0 15 -8 26t-22 21l-369 132h220q5 0 8 -6t1 -12l-5 -21h210l23 93q3 13 0 30.5t-10.5 33t-19 26t-24.5 10.5h-502q-13 0 -29.5 -10.5t-32 -26t-27.5 -33
t-15 -30.5l-29 -117q0 -15 9.5 -27t20.5 -20l369 -132h-220q-5 0 -8 6t-1 12l5 21h-210l-23 -93q-3 -14 0 -31t10.5 -32.5t19 -26t24.5 -10.5z" />
    <glyph glyph-name="FL203Ah" unicode="&#x203a;" horiz-adv-x="209" 
d="M220 154l-184 -119l49 198l68 41l-47 42l49 198l125 -119z" />
    <glyph glyph-name="FL0153h" unicode="&#x153;" horiz-adv-x="1154" 
d="M106 0q-13 0 -24.5 10.5t-19 26t-10.5 32.5t0 31l87 350q3 13 15 30.5t27.5 33t32 26t29.5 10.5h1021l-39 -155h-425l-10 -43h321l-39 -154h-321l-10 -43h425l-39 -155h-1021zM588 395h-239q-5 0 -10.5 -6.5t-7.5 -11.5l-51 -204q-2 -6 1 -12t9 -6h239z" />
    <glyph glyph-name="FL017Eh" unicode="&#x17e;" horiz-adv-x="714" 
d="M385 599l-80 155h198l28 -58l55 58h198l-158 -155h-241zM27 0l56 226q8 15 22.5 27t31.5 20l416 123h-217l-10 -39h-210l48 193h660l-56 -226q-8 -15 -23.5 -27t-30.5 -20l-416 -123h217l10 39h210l-48 -193h-660z" />
    <glyph glyph-name="FL0178h" unicode="&#x178;" horiz-adv-x="731" 
d="M308 754l-39 -155h210l39 155h-210zM589 754l-39 -155h210l39 155h-210zM227 -133q11 0 33 8.5t48 21.5t54 29t51 30.5t39 26.5t18 17l68 274l309 276h-251l-136 -130l-71 130h-231l171 -275z" />
    <glyph glyph-name="FL00A1h" unicode="&#xa1;" horiz-adv-x="264" 
d="M237 0h-210l89 356h210zM125 395l39 155h210l-39 -155h-210z" />
    <glyph glyph-name="FL0032h" unicode="&#xa2;" 
d="M678 57l39 154h-134l32 128h134l38 155h-134l14 56h-210l-14 -56h-214q-13 0 -29.5 -10.5t-32 -26t-27.5 -33t-15 -30.5l-59 -237q-3 -14 0 -31t10.5 -32.5t19 -26t24.5 -10.5h214l-14 -57h210l14 57h134zM294 229l23 92q2 5 8 11.5t11 6.5h69l-32 -128h-69q-6 0 -9 6
t-1 12z" />
    <glyph glyph-name="FL00A3h" unicode="&#xa3;" horiz-adv-x="740" 
d="M115 352l-39 -155h86l-10 -42h-86l-39 -155h686l39 155h-390l10 42h286l39 155h-286l6 25q2 6 7.5 12t10.5 6h167l39 155h-312q-13 0 -29.5 -10.5t-32 -26t-27.5 -33t-15 -30.5l-24 -98h-86z" />
    <glyph glyph-name="FL00A4h" unicode="&#xa4;" horiz-adv-x="744" 
d="M455 62l37 -62h231l-70 119q3 4 5 8.5t4 11.5l67 271q3 14 1 20l130 120h-251l-67 -62h-116l-37 62h-231l70 -120q-6 -8 -9 -20l-67 -271q-4 -12 -1 -20l-130 -119h251l67 62h116zM511 210q-1 -5 -5 -9.5t-9 -4.5h-152q-5 0 -7 4.5t-1 9.5l33 130q1 4 5.5 9t8.5 5h152
q5 0 7.5 -4.5t0.5 -9.5z" />
    <glyph glyph-name="FL00A5h" unicode="&#xa5;" horiz-adv-x="731" 
d="M227 -133q11 0 33 8.5t48 21.5t54 29t51 30.5t39 26.5t18 17h161l38 154h-161l11 42h161l38 154h-95l224 200h-251l-136 -130l-71 130h-231l124 -200h-95l-38 -154h160l-11 -42h-160l-38 -154h160z" />
    <glyph glyph-name="FL007Dh" unicode="&#xa6;" horiz-adv-x="264" 
d="M-6 -133l176 708q-1 3 -9.5 14.5t-18 28t-17.5 34t-8 32.5h291l-204 -817h-210z" />
    <glyph glyph-name="FL00A9h" unicode="&#xa7;" horiz-adv-x="744" 
d="M329 62h254q10 0 22.5 8t24.5 20t20.5 25t11.5 24l67 271q3 14 1 20l130 120h-241l-67 -62h-254q-10 0 -22.5 -8.5t-24.5 -20.5t-20.5 -25.5t-11.5 -23.5l-67 -271q-4 -12 -1 -20l-130 -119h241zM511 210q-1 -5 -5 -9.5t-9 -4.5h-152q-5 0 -7 4.5t-1 9.5l33 130
q1 4 5.5 9t8.5 5h152q5 0 7.5 -4.5t0.5 -9.5z" />
    <glyph glyph-name="FL00A8h" unicode="&#xa8;" horiz-adv-x="545" 
d="M215 754l-39 -155h210l39 155h-210zM496 754l-39 -155h210l39 155h-210z" />
    <glyph glyph-name="FL061Bh" unicode="&#xa9;" horiz-adv-x="261" 
d="M304 479l-24 7q-14 -26 -35 -26q-30 0 -21 36q9 37 40 37q17 0 20 -22l29 6q-3 42 -43 42q-60 0 -75 -63q-17 -65 43 -65q45 0 66 48zM275 576h4q14 0 25.5 -6.5t19.5 -17.5t11 -24.5t-1 -28.5v-3q-5 -20 -22 -40t-37 -30h2q-36 -11 -39 -11q-7 0 -17 2t-26 10l1 -1
q-17 12 -23 36q-4 12 2 34q0 2 19 40l-1 -1q33 41 82 41zM282 604q-15 0 -26.5 -3t-28.5 -9q-66 -36 -81 -96q-8 -29 3 -60q5 -11 9.5 -17.5t14.5 -14.5q26 -16 55 -16q7 0 11.5 0.5t10 2.5t14 5.5t24.5 9.5q17 8 26 15t19 21h-1q12 16 20 29.5t11 24.5q5 24 -4 52v-1
q-3 23 -31 42q-21 15 -46 15z" />
    <glyph glyph-name="FL0060h" unicode="&#xaa;" horiz-adv-x="800" 
d="M493 333l-241 -333h-231l324 441q-1 3 -9.5 14.5t-18.5 28t-18 34t-8 32.5h358l130 -550h-211z" />
    <glyph glyph-name="FL00ADh" unicode="&#xab;" horiz-adv-x="398" 
d="M254 154l126 -119l49 198l-48 41l69 42l49 198l-185 -119zM65 154l126 -119l49 198l-48 41l69 42l49 198l-185 -119z" />
    <glyph glyph-name="FL00ACh" unicode="&#xac;" horiz-adv-x="443" 
d="M115 352h389l-68 -272h-154l29 118h-235z" />
    <glyph glyph-name="FL00B3h" unicode="&#xad;" horiz-adv-x="310" 
d="M115 352l-39 -154h256l39 154h-256z" />
    <glyph glyph-name="FL00B2h" unicode="&#xae;" horiz-adv-x="261" 
d="M241 528h14q14 0 12 2q9 -4 7 -12q-2 -7 -6 -10t-18 -3h-15zM189 433h28l11 46h4h7q2 -3 6.5 -8.5t9.5 -16.5l-1 1l4 -22h28q-4 -2 -5.5 -3t-5.5 -4h2q-29 -10 -42 -10h-1q-3 0 -13 2t-26 9l1 -1q-2 3 -3.5 4t-3.5 3zM274 575h4q13 0 25 -6.5t20 -17t11 -24t-1 -28.5v-5
q-5 -11 -8 -16t-13 -22l1 1q-5 -6 -9.5 -10t-11.5 -9l-9 25l-1.5 6t-2.5 5q-2 4 -2.5 6t-2.5 5q26 8 33 35q2 8 -8 25q-3 0 -4 1h-2q-2 0 -2 2h2q-3 6 -32 6h-42l-30 -121q-14 14 -15 23v-1q-2 18 -2 24t1 18q5 17 22 39l-1 -1q34 40 80 40zM282 604q-33 0 -58 -16
q-28 -12 -52 -41l-2 -2q-11 -14 -15 -22.5t-9 -26.5q-8 -33 0 -56t29 -38q20 -14 53 -14h13q8 0 15.5 3t24.5 11q37 16 51 40h-1q26 31 32 54q6 26 -3 52t-33 40h1q-16 16 -46 16z" />
    <glyph glyph-name="FL00B4h" unicode="&#xaf;" horiz-adv-x="555" 
d="M164 550l-39 -155h501l39 155h-501z" />
    <glyph glyph-name="FL00B0h" unicode="&#xb0;" horiz-adv-x="264" 
d="M266 657l10 39h61l-10 -39h-61zM215 754l-39 -155h210l39 155h-210z" />
    <glyph glyph-name="FL00B1h" unicode="&#xb1;" horiz-adv-x="443" 
d="M139 448h117l25 102h154l-25 -102h118l-39 -154h-118l-25 -103h-154l25 103h-117zM65 154h389l-38 -154h-389z" />
    <glyph glyph-name="FL00B9h" unicode="&#xb2;" horiz-adv-x="417" 
d="M465 302h-363l31 124q5 11 13.5 18t21.5 13l99 30h-119l15 58q2 7 9 17.5t17 19.5t20.5 15.5t18.5 6.5h263q9 0 16 -6.5t12 -15.5t7 -19.5t0 -17.5l-16 -64q-5 -9 -15.5 -17.5t-21.5 -14.5l-101 -30h122zM280 507l-4 -18l61 19h-57v-1zM306 399h56l5 18z" />
    <glyph glyph-name="FL00BAh" unicode="&#xb3;" horiz-adv-x="404" 
d="M351 399h-1l2 5h-169l24 98h169l1 4q0 1 1 1h-225l25 97h301q8 0 15 -6.5t12 -15.5t7 -19.5t0 -17.5l-14 -57q-2 -8 -11.5 -18t-19.5 -17q6 -8 10.5 -18t2.5 -17l-14 -56q-2 -8 -9 -18.5t-16.5 -19.5t-20 -15.5t-18.5 -6.5h-301l24 97h225z" />
    <glyph glyph-name="FL00B5h" unicode="&#xb4;" horiz-adv-x="240" 
d="M362 599l159 155h-205l-140 -155h186z" />
    <glyph glyph-name="FL00B6h" unicode="&#xb5;" 
d="M374 550h-210l-170 -683q11 0 33 8.5t48 21.5t54 29t51 30.5t39 26.5t18 17h396q13 0 29.5 10.5t32 26t27.5 32.5t15 31l112 450h-210l-94 -377q-2 -6 -7.5 -12t-10.5 -6h-251z" />
    <glyph glyph-name="FL0773h" unicode="&#xb6;" horiz-adv-x="680" 
d="M493 395h48l-131 -528q12 0 33.5 8.5t48 21.5t54 29t50.5 30.5t38.5 26.5t17.5 17h1l137 550h-547q-13 0 -29.5 -10.5t-32 -26t-27.5 -33t-15 -30.5l-52 -209q-3 -14 0 -31t10.5 -32.5t19 -26t24.5 -10.5h79l-68 -274q11 0 33 8.5t48.5 21.5t54 29t50.5 30.5t39 26.5
t18 17z" />
    <glyph glyph-name="FL00B7h" unicode="&#xb7;" horiz-adv-x="264" 
d="M115 352l-39 -155h210l39 155h-210z" />
    <glyph glyph-name="FL00B8h" unicode="&#xb8;" horiz-adv-x="264" 
d="M27 2h210q-4 -7 -20 -20t-39.5 -28t-50.5 -30.5t-53 -28t-47.5 -20.5t-32.5 -8z" />
    <glyph glyph-name="FL00BEh" unicode="&#xb9;" horiz-adv-x="220" 
d="M129 302l57 226q-7 8 -14.5 28t-8.5 48h181l-76 -302h-139z" />
    <glyph glyph-name="FL00BCh" unicode="&#xba;" horiz-adv-x="431" 
d="M422 302h-265q-9 0 -17 7t-13.5 16.5t-7.5 21t0 20.5l43 173q2 8 10 19t18.5 21t22 17t20.5 7h265q9 0 17.5 -7t14.5 -17t8.5 -21t0.5 -19l-43 -173q-2 -9 -10.5 -20.5t-19.5 -21t-23 -16.5t-21 -7zM289 496l-22 -86h100l22 86h-100z" />
    <glyph glyph-name="FL00BBh" unicode="&#xbb;" horiz-adv-x="398" 
d="M220 154l-184 -119l49 198l68 41l-47 42l49 198l125 -119zM409 154l-184 -119l49 198l68 41l-47 42l49 198l125 -119z" />
    <glyph glyph-name="FL00C7h" unicode="&#xbc;" horiz-adv-x="904" 
d="M730 550l-399 -550h-208l400 550h207zM116 248l56 226q-6 8 -13.5 28t-9.5 48h181l-75 -302h-139zM524 202q5 10 15 17.5t23 13.5l224 68h128l-31 -126h38l-24 -96h-38l-20 -79h-128l49 195l-64 -20h51l-24 -96h-229z" />
    <glyph glyph-name="FL00BDh" unicode="&#xbd;" horiz-adv-x="884" 
d="M116 248l56 226q-6 8 -13.5 28t-9.5 48h181l-75 -302h-139zM730 550l-399 -550h-208l400 550h207zM857 0h-363l31 124q5 11 13.5 18t21.5 13l99 30h-119l15 58q2 7 9 17.5t16.5 19.5t20 15.5t18.5 6.5h263q9 0 16 -6.5t12.5 -15.5t7.5 -19.5t0 -17.5l-16 -64
q-5 -9 -15.5 -17.5t-21.5 -14.5l-101 -30h122zM672 205l-4 -18l60 19h-57zM698 97h56l5 18z" />
    <glyph glyph-name="FL00C8h" unicode="&#xbe;" horiz-adv-x="1056" 
d="M676 202q5 10 15 17.5t23 13.5l224 68h128l-31 -126h38l-24 -96h-38l-20 -79h-128l49 195l-64 -20h51l-24 -96h-229zM882 550l-399 -550h-208l400 550h207zM338 345h-1l1 5h-169l25 98h169l1 4q0 1 1 1h-225l24 97h301q8 0 15 -6.5t12 -15.5t7 -19.5t0 -17.5l-14 -57
q-2 -8 -11 -18t-20 -17q7 -8 11.5 -18t2.5 -17l-14 -56q-2 -8 -9 -18.5t-16.5 -19.5t-20 -15.5t-18.5 -6.5h-301l24 97h225z" />
    <glyph glyph-name="FL00BFh" unicode="&#xbf;" horiz-adv-x="714" 
d="M525 193h210l-23 -93q-3 -14 -15 -31t-27.5 -32.5t-32 -26t-29.5 -10.5h-502q-13 0 -24.5 10.5t-19 26t-10.5 32.5t0 31l29 115q8 15 23.5 27t29.5 20l316 94h218l-14 -57q-8 -15 -22.5 -27t-31.5 -20l-311 -98h212q5 0 11 6t8 11zM716 550l-39 -155h-210l39 155h210z
" />
    <glyph glyph-name="FL00C0h" unicode="&#xc0;" horiz-adv-x="800" 
d="M412 220l81 113l26 -113h-107zM417 754l81 -155h186l-62 155h-205zM568 0h211l-130 550h-358q0 -15 8 -32.5t18 -34t18.5 -28t9.5 -14.5l-324 -441h231l48 66h252z" />
    <glyph glyph-name="FL00C1h" unicode="&#xc1;" horiz-adv-x="800" 
d="M600 599l159 155h-205l-140 -155h186zM568 0h211l-130 550h-223l-405 -550h231l48 66h252zM493 333l25 -113h-107z" />
    <glyph glyph-name="FL00C2h" unicode="&#xc2;" horiz-adv-x="800" 
d="M467 754l-158 -155h198l56 58l27 -58h198l-80 155h-241zM493 333l25 -113h-107zM568 0h211l-130 550h-358q0 -15 8 -32.5t18 -34t18.5 -28t9.5 -14.5l-324 -441h231l48 66h252z" />
    <glyph glyph-name="FL00C3h" unicode="&#xc3;" horiz-adv-x="800" 
d="M733 599l158 155h-198l-54 -57l-29 57h-207l-158 -155h198l54 56l29 -56h207zM493 333l25 -113h-107zM568 0h211l-130 550h-358q0 -15 8 -32.5t18 -34t18.5 -28t9.5 -14.5l-324 -441h231l48 66h252z" />
    <glyph glyph-name="FL00C4h" unicode="&#xc4;" horiz-adv-x="800" 
d="M342 754l-39 -155h210l39 155h-210zM623 754l-39 -155h210l39 155h-210zM493 333l25 -113h-107zM568 0h211l-130 550h-358q0 -15 8 -32.5t18 -34t18.5 -28t9.5 -14.5l-324 -441h231l48 66h252z" />
    <glyph glyph-name="FL00C5h" unicode="&#xc5;" horiz-adv-x="800" 
d="M534 657l10 39h61l-10 -39h-61zM483 754l-39 -155h210l39 155h-210zM493 333l25 -113h-107zM568 0h211l-130 550h-358q0 -15 8 -32.5t18 -34t18.5 -28t9.5 -14.5l-324 -441h231l48 66h252z" />
    <glyph glyph-name="FL00C6h" unicode="&#xc6;" horiz-adv-x="1222" 
d="M552 66l16 -66h627l39 155h-425l10 43h321l39 154h-321l10 43h425l39 155h-637l-24 -95l-22 95h-358q0 -15 8 -32.5t18 -34t18.5 -28t9.5 -14.5l-324 -441h231l48 66h252zM493 333l25 -113h-107z" />
    <glyph glyph-name="FL0063h" unicode="&#xc7;" horiz-adv-x="691" 
d="M333 550q-47 0 -85.5 -24.5t-68 -64t-50.5 -88.5t-33 -98t-16 -98t6 -88.5t36.5 -64t73.5 -24.5h468l39 155h-365q-18 0 -27.5 9.5t-13 25t-1.5 35t7 39.5l5 22q5 20 13 39.5t19 35t25 25t32 9.5h365l39 155h-468z" />
    <glyph glyph-name="FL0988h" unicode="&#xc8;" horiz-adv-x="749" 
d="M85 0h637l39 155h-425l10 43h321l39 154h-321l10 43h425l39 155h-717q1 -14 8.5 -31t17 -32.5t17.5 -27.5t10 -16zM677 599l-62 155h-205l81 -155h186z" />
    <glyph glyph-name="FL0966h" unicode="&#xc9;" horiz-adv-x="749" 
d="M85 0h637l39 155h-425l10 43h321l39 154h-321l10 43h425l39 155h-717q1 -14 8.5 -31t17 -32.5t17.5 -27.5t10 -16zM613 599l159 155h-205l-140 -155h186z" />
    <glyph glyph-name="FL0948h" unicode="&#xca;" horiz-adv-x="749" 
d="M438 754l-158 -155h198l56 58l27 -58h198l-80 155h-241zM85 0h637l39 155h-425l10 43h321l39 154h-321l10 43h425l39 155h-717q1 -14 8.5 -31t17 -32.5t17.5 -27.5t10 -16z" />
    <glyph glyph-name="FL00CBh" unicode="&#xcb;" horiz-adv-x="749" 
d="M313 754l-39 -155h210l39 155h-210zM594 754l-39 -155h210l39 155h-210zM85 0h637l39 155h-425l10 43h321l39 154h-321l10 43h425l39 155h-717q1 -14 8.5 -31t17 -32.5t17.5 -27.5t10 -16z" />
    <glyph glyph-name="FL00CCh" unicode="&#xcc;" horiz-adv-x="264" 
d="M420 599l-62 155h-205l81 -155h186zM-6 -133q11 0 33 8.5t48 21.5t54 29t51 30.5t39 26.5t18 17l137 550h-210z" />
    <glyph glyph-name="FL00CDh" unicode="&#xcd;" horiz-adv-x="264" 
d="M328 599l159 155h-205l-140 -155h186zM-6 -133q11 0 33 8.5t48 21.5t54 29t51 30.5t39 26.5t18 17l137 550h-210z" />
    <glyph glyph-name="FL00CEh" unicode="&#xce;" horiz-adv-x="264" 
d="M200 754l-158 -155h198l56 58l27 -58h198l-80 155h-241zM-6 -133q11 0 33 8.5t48 21.5t54 29t51 30.5t39 26.5t18 17l137 550h-210z" />
    <glyph glyph-name="FL00CFh" unicode="&#xcf;" horiz-adv-x="264" 
d="M75 754l-39 -155h210l39 155h-210zM356 754l-39 -155h210l39 155h-210zM-6 -133q11 0 33 8.5t48 21.5t54 29t51 30.5t39 26.5t18 17l137 550h-210z" />
    <glyph glyph-name="FL00D0h" unicode="&#xd0;" horiz-adv-x="804" 
d="M115 352h65l22 91q-2 4 -10 16t-17.5 27.5t-17 32.5t-8.5 31h685q13 0 24.5 -10.5t19.5 -26.5t11 -33.5t0 -30.5l-87 -348q-3 -14 -15 -31t-27.5 -33t-32.5 -26.5t-30 -10.5h-605l49 198h-65zM610 174l51 202q2 6 -2 12.5t-9 6.5h-250l-10 -43h67l-39 -154h-67l-10 -43
h250q5 0 11 6.5t8 12.5z" />
    <glyph glyph-name="FL00D8h" unicode="&#xd1;" horiz-adv-x="738" 
d="M702 599l158 155h-198l-54 -57l-29 57h-207l-158 -155h198l54 56l29 -56h207zM571 279l-217 271h-190l-170 -683q11 0 33 8.5t48 21.5t53.5 29t51 30.5t39 26.5t17.5 17h1l68 271l215 -271h191l137 550h-210z" />
    <glyph glyph-name="FL00D2h" unicode="&#xd2;" 
d="M545 173q-2 -6 -7.5 -12t-10.5 -6h-237q-6 0 -9 6t-1 12l51 204q2 5 7.5 11.5t10.5 6.5h237q5 0 8.5 -6t1.5 -12zM633 0q13 0 29.5 10.5t32 26t27.5 32.5t15 31l87 350q3 13 0 30.5t-10.5 33t-19 26t-24.5 10.5h-527q-13 0 -29.5 -10.5t-32 -26t-27.5 -33t-15 -30.5
l-87 -350q-3 -14 0 -31t10.5 -32.5t19 -26t24.5 -10.5h527zM644 599l-62 155h-205l81 -155h186z" />
    <glyph glyph-name="FL00D3h" unicode="&#xd3;" 
d="M579 599l159 155h-205l-140 -155h186zM633 0q13 0 29.5 10.5t32 26t27.5 32.5t15 31l87 350q3 13 0 30.5t-10.5 33t-19 26t-24.5 10.5h-527q-13 0 -29.5 -10.5t-32 -26t-27.5 -33t-15 -30.5l-87 -350q-3 -14 0 -31t10.5 -32.5t19 -26t24.5 -10.5h527zM331 377q2 6 7.5 12
t10.5 6h237q5 0 8.5 -6.5t1.5 -11.5l-51 -204q-2 -6 -7 -12t-11 -6h-237q-5 0 -8.5 6t-1.5 12z" />
    <glyph glyph-name="FL00D4h" unicode="&#xd4;" 
d="M633 0q13 0 29.5 10.5t32 26t27.5 32.5t15 31l87 350q3 13 0 30.5t-10.5 33t-19 26t-24.5 10.5h-527q-13 0 -29.5 -10.5t-32 -26t-27.5 -33t-15 -30.5l-87 -350q-3 -14 0 -31t10.5 -32.5t19 -26t24.5 -10.5h527zM331 377q2 6 7.5 12t10.5 6h237q5 0 8.5 -6.5t1.5 -11.5
l-51 -204q-2 -6 -7 -12t-11 -6h-237q-5 0 -8.5 6t-1.5 12zM437 754l-158 -155h198l56 58l27 -58h198l-80 155h-241z" />
    <glyph glyph-name="FL00D5h" unicode="&#xd5;" 
d="M703 599l158 155h-198l-54 -57l-29 57h-207l-158 -155h198l54 56l29 -56h207zM633 0q13 0 29.5 10.5t32 26t27.5 32.5t15 31l87 350q3 13 0 30.5t-10.5 33t-19 26t-24.5 10.5h-527q-13 0 -29.5 -10.5t-32 -26t-27.5 -33t-15 -30.5l-87 -350q-3 -14 0 -31t10.5 -32.5
t19 -26t24.5 -10.5h527zM331 377q2 6 7.5 12t10.5 6h237q5 0 8.5 -6.5t1.5 -11.5l-51 -204q-2 -6 -7 -12t-11 -6h-237q-5 0 -8.5 6t-1.5 12z" />
    <glyph glyph-name="FL00D6h" unicode="&#xd6;" 
d="M312 754l-39 -155h210l39 155h-210zM593 754l-39 -155h210l39 155h-210zM633 0q13 0 29.5 10.5t32 26t27.5 32.5t15 31l87 350q3 13 0 30.5t-10.5 33t-19 26t-24.5 10.5h-527q-13 0 -29.5 -10.5t-32 -26t-27.5 -33t-15 -30.5l-87 -350q-3 -14 0 -31t10.5 -32.5t19 -26
t24.5 -10.5h527zM545 173q-2 -6 -7.5 -12t-10.5 -6h-237q-6 0 -9 6t-1 12l51 204q2 5 7.5 11.5t10.5 6.5h237q5 0 8.5 -6t1.5 -12z" />
    <glyph glyph-name="FL00D7h" unicode="&#xd7;" horiz-adv-x="438" 
d="M75 192l103 83l-62 82l136 109l62 -82l104 83l82 -109l-104 -83l63 -84l-137 -109l-63 84l-102 -83z" />
    <glyph glyph-name="FL00F8h" unicode="&#xd8;" 
d="M633 0h-527q-13 0 -24.5 10.5t-19 26t-10.5 32.5t0 31l87 350q3 13 15 30.5t27.5 33t32 26t29.5 10.5h527q13 0 24.5 -10.5t19 -26t10.5 -33t0 -30.5l-87 -350q-3 -14 -15 -31t-27.5 -32.5t-32 -26t-29.5 -10.5zM545 173l39 155l-144 -173h87q5 0 10.5 6t7.5 12zM436 395
h-87q-5 0 -10.5 -6.5t-7.5 -11.5l-38 -154z" />
    <glyph glyph-name="FL00D9h" unicode="&#xd9;" horiz-adv-x="797" 
d="M702 599l-62 155h-205l81 -155h186zM164 0h527q13 0 29.5 10.5t32 26t27.5 32.5t15 31l112 450h-210l-94 -377q-2 -6 -7.5 -12t-10.5 -6h-237q-5 0 -8.5 6t-1.5 12l94 377h-290q1 -14 8.5 -31t17 -32.5t17.5 -27.5t10 -16l-85 -343q-3 -14 0 -31t10.5 -32.5t19 -26
t24.5 -10.5z" />
    <glyph glyph-name="FL00DAh" unicode="&#xda;" horiz-adv-x="797" 
d="M637 599l159 155h-205l-140 -155h186zM164 0h527q13 0 29.5 10.5t32 26t27.5 32.5t15 31l112 450h-210l-94 -377q-2 -6 -7.5 -12t-10.5 -6h-237q-5 0 -8.5 6t-1.5 12l94 377h-290q1 -14 8.5 -31t17 -32.5t17.5 -27.5t10 -16l-85 -343q-3 -14 0 -31t10.5 -32.5t19 -26
t24.5 -10.5z" />
    <glyph glyph-name="FL00DBh" unicode="&#xdb;" horiz-adv-x="797" 
d="M495 754l-158 -155h198l56 58l27 -58h198l-80 155h-241zM164 0h527q13 0 29.5 10.5t32 26t27.5 32.5t15 31l112 450h-210l-94 -377q-2 -6 -7.5 -12t-10.5 -6h-237q-5 0 -8.5 6t-1.5 12l94 377h-290q1 -14 8.5 -31t17 -32.5t17.5 -27.5t10 -16l-85 -343q-3 -14 0 -31
t10.5 -32.5t19 -26t24.5 -10.5z" />
    <glyph glyph-name="FL00DCh" unicode="&#xdc;" horiz-adv-x="797" 
d="M370 754l-39 -155h210l39 155h-210zM651 754l-39 -155h210l39 155h-210zM164 0h527q13 0 29.5 10.5t32 26t27.5 32.5t15 31l112 450h-210l-94 -377q-2 -6 -7.5 -12t-10.5 -6h-237q-5 0 -8.5 6t-1.5 12l94 377h-290q1 -14 8.5 -31t17 -32.5t17.5 -27.5t10 -16l-85 -343
q-3 -14 0 -31t10.5 -32.5t19 -26t24.5 -10.5z" />
    <glyph glyph-name="FL00DDh" unicode="&#xdd;" horiz-adv-x="731" 
d="M575 599l159 155h-205l-140 -155h186zM460 420l-71 130h-231l171 -275l-69 -275h210l68 274l309 276h-251z" />
    <glyph glyph-name="FL00DEh" unicode="&#xde;" 
d="M-6 -133l170 683h210l-18 -71h396q13 0 24.5 -10.5t19 -26t10.5 -33t0 -30.5l-51 -208q-3 -14 -15 -31t-27.5 -32.5t-32 -26t-29.5 -10.5h-348l38 154h203q5 0 10.5 5t7.5 11l16 65q2 6 -1 12t-8 6h-251l-81 -324q-2 -5 -18 -17t-39 -26.5t-51 -30.5t-54 -29t-48 -21.5
t-33 -8.5z" />
    <glyph glyph-name="FL00DFh" unicode="&#xdf;" 
d="M139 450q3 13 15 30.5t27.5 33t32 26t29.5 10.5h527q13 0 24.5 -10.5t19 -26t10.5 -33t0 -30.5l-27 -108q-2 -7 -10 -17t-18.5 -19.5t-21 -18t-16.5 -12.5q4 -4 10.5 -13t12 -19t8.5 -19.5t2 -15.5l-27 -108q-3 -14 -15 -31t-27.5 -32.5t-32 -26t-29.5 -10.5h-348l39 155
h203q5 0 10.5 6t7.5 12l2 9q1 10 -6 15h-207l39 155h205q4 1 9 6t7 10l2 9q2 6 -1.5 12t-8.5 6h-239q-13 -5 -16 -18l-94 -377q-2 -5 -18 -17t-39 -26.5t-51 -30.5t-54 -29t-48 -21.5t-33 -8.5z" />
    <glyph glyph-name="FL00E0h" unicode="&#xe0;" horiz-adv-x="800" 
d="M412 220l81 113l26 -113h-107zM21 0h231l48 66h252l16 -66h211l-131 550h-223zM417 754l81 -155h186l-62 155h-205z" />
    <glyph glyph-name="FL0725h" unicode="&#xe1;" horiz-adv-x="800" 
d="M600 599l159 155h-205l-140 -155h186zM568 0h211l-130 550h-223l-405 -550h231l48 66h252zM493 333l25 -113h-107z" />
    <glyph glyph-name="FL00E2h" unicode="&#xe2;" horiz-adv-x="800" 
d="M467 754l-158 -155h198l56 58l27 -58h198l-80 155h-241zM568 0h211l-130 550h-223l-405 -550h231l48 66h252zM493 333l25 -113h-107z" />
    <glyph glyph-name="FL00E3h" unicode="&#xe3;" horiz-adv-x="800" 
d="M733 599l158 155h-198l-54 -57l-29 57h-207l-158 -155h198l54 56l29 -56h207zM568 0h211l-130 550h-223l-405 -550h231l48 66h252zM493 333l25 -113h-107z" />
    <glyph glyph-name="FL00E4h" unicode="&#xe4;" horiz-adv-x="800" 
d="M342 754l-39 -155h210l39 155h-210zM623 754l-39 -155h210l39 155h-210zM568 0h211l-130 550h-223l-405 -550h231l48 66h252zM493 333l25 -113h-107z" />
    <glyph glyph-name="FL00E5h" unicode="&#xe5;" horiz-adv-x="800" 
d="M534 657l10 39h61l-10 -39h-61zM483 754l-39 -155h210l39 155h-210zM568 0h211l-130 550h-223l-405 -550h231l48 66h252zM493 333l25 -113h-107z" />
    <glyph glyph-name="FL00E6h" unicode="&#xe6;" horiz-adv-x="1222" 
d="M568 0h627l39 155h-425l10 43h321l39 154h-321l10 43h425l39 155h-637l-24 -95l-22 95h-223l-405 -550h231l48 66h252zM493 333l25 -113h-107z" />
    <glyph glyph-name="FL0A13h" unicode="&#xe7;" 
d="M106 0q-13 0 -24.5 10.5t-19 26t-10.5 32.5t0 31l87 350q3 13 15 30.5t27.5 33t32 26t29.5 10.5h527q13 0 24.5 -10.5t19 -26t10.5 -33t0 -30.5l-27 -111h-210l9 38q2 6 -1.5 12t-8.5 6h-237q-5 0 -10.5 -6.5t-7.5 -11.5l-51 -204q-2 -6 1 -12t9 -6h237q5 0 10.5 6
t7.5 12l10 38h210l-28 -111q-3 -14 -15 -31t-27.5 -32.5t-32 -26t-29.5 -10.5h-159q-2 -5 -18 -17t-39 -26.5t-51 -30.5t-54 -29t-48 -21.5t-33 -8.5l33 133h-158z" />
    <glyph glyph-name="FL0946h" unicode="&#xe8;" horiz-adv-x="691" 
d="M619 599l-62 155h-205l81 -155h186zM27 0h637l39 155h-425l10 43h321l39 154h-321l10 43h425l39 155h-637z" />
    <glyph glyph-name="FL00E9h" unicode="&#xe9;" horiz-adv-x="691" 
d="M555 599l159 155h-205l-140 -155h186zM27 0h637l39 155h-425l10 43h321l39 154h-321l10 43h425l39 155h-637z" />
    <glyph glyph-name="FL093Ch" unicode="&#xea;" horiz-adv-x="691" 
d="M413 754l-158 -155h198l56 58l27 -58h198l-80 155h-241zM27 0h637l39 155h-425l10 43h321l39 154h-321l10 43h425l39 155h-637z" />
    <glyph glyph-name="FL00EBh" unicode="&#xeb;" horiz-adv-x="691" 
d="M288 754l-39 -155h210l39 155h-210zM569 754l-39 -155h210l39 155h-210zM27 0h637l39 155h-425l10 43h321l39 154h-321l10 43h425l39 155h-637z" />
    <glyph glyph-name="FL06D8h" unicode="&#xec;" horiz-adv-x="264" 
d="M420 599l-62 155h-205l81 -155h186zM374 550h-210l-137 -550h210z" />
    <glyph glyph-name="FL00EDh" unicode="&#xed;" horiz-adv-x="264" 
d="M328 599l159 155h-205l-140 -155h186zM374 550h-210l-137 -550h210z" />
    <glyph glyph-name="FL00EEh" unicode="&#xee;" horiz-adv-x="264" 
d="M200 754l-158 -155h198l56 58l27 -58h198l-80 155h-241zM374 550h-210l-137 -550h210z" />
    <glyph glyph-name="FL00EFh" unicode="&#xef;" horiz-adv-x="264" 
d="M75 754l-39 -155h210l39 155h-210zM356 754l-39 -155h210l39 155h-210zM374 550h-210l-137 -550h210z" />
    <glyph glyph-name="FL00F0h" unicode="&#xf0;" 
d="M106 0h527q13 0 29.5 10.5t32 26t27.5 32.5t15 31l87 350q3 13 0 30.5t-10.5 33t-19 26t-24.5 10.5h-171l25 99h-210l-25 -99h-225l-39 -155h461q5 0 8.5 -6.5t1.5 -11.5l-6 -25h-396q-13 0 -29.5 -10.5t-32 -25.5t-27.5 -32.5t-15 -30.5l-38 -153q-3 -14 0 -31
t10.5 -32.5t19 -26t24.5 -10.5zM299 198h252l-6 -25q-2 -6 -7 -12t-11 -6h-237q-5 0 -8 5t-2 11l2 9q2 5 7 10.5t10 7.5z" />
    <glyph glyph-name="FL00F1h" unicode="&#xf1;" horiz-adv-x="738" 
d="M702 599l158 155h-198l-54 -57l-29 57h-207l-158 -155h198l54 56l29 -56h207zM571 279l-215 271h-192l-137 -550h210l68 271l213 -271h193l137 550h-210z" />
    <glyph glyph-name="FL00F2h" unicode="&#xf2;" 
d="M545 173q-2 -6 -7.5 -12t-10.5 -6h-237q-6 0 -9 6t-1 12l51 204q2 5 7.5 11.5t10.5 6.5h237q5 0 8.5 -6t1.5 -12zM633 0q13 0 29.5 10.5t32 26t27.5 32.5t15 31l87 350q3 13 0 30.5t-10.5 33t-19 26t-24.5 10.5h-527q-13 0 -29.5 -10.5t-32 -26t-27.5 -33t-15 -30.5
l-87 -350q-3 -14 0 -31t10.5 -32.5t19 -26t24.5 -10.5h527zM644 599l-62 155h-205l81 -155h186z" />
    <glyph glyph-name="FL0040h" unicode="&#xf3;" 
d="M579 599l159 155h-205l-140 -155h186zM633 0q13 0 29.5 10.5t32 26t27.5 32.5t15 31l87 350q3 13 0 30.5t-10.5 33t-19 26t-24.5 10.5h-527q-13 0 -29.5 -10.5t-32 -26t-27.5 -33t-15 -30.5l-87 -350q-3 -14 0 -31t10.5 -32.5t19 -26t24.5 -10.5h527zM331 377q2 6 7.5 12
t10.5 6h237q5 0 8.5 -6.5t1.5 -11.5l-51 -204q-2 -6 -7 -12t-11 -6h-237q-5 0 -8.5 6t-1.5 12z" />
    <glyph glyph-name="FL0A2Ah" unicode="&#xf4;" 
d="M633 0q13 0 29.5 10.5t32 26t27.5 32.5t15 31l87 350q3 13 0 30.5t-10.5 33t-19 26t-24.5 10.5h-527q-13 0 -29.5 -10.5t-32 -26t-27.5 -33t-15 -30.5l-87 -350q-3 -14 0 -31t10.5 -32.5t19 -26t24.5 -10.5h527zM331 377q2 6 7.5 12t10.5 6h237q5 0 8.5 -6.5t1.5 -11.5
l-51 -204q-2 -6 -7 -12t-11 -6h-237q-5 0 -8.5 6t-1.5 12zM437 754l-158 -155h198l56 58l27 -58h198l-80 155h-241z" />
    <glyph glyph-name="FL0A82h" unicode="&#xf5;" 
d="M703 599l158 155h-198l-54 -57l-29 57h-207l-158 -155h198l54 56l29 -56h207zM633 0q13 0 29.5 10.5t32 26t27.5 32.5t15 31l87 350q3 13 0 30.5t-10.5 33t-19 26t-24.5 10.5h-527q-13 0 -29.5 -10.5t-32 -26t-27.5 -33t-15 -30.5l-87 -350q-3 -14 0 -31t10.5 -32.5
t19 -26t24.5 -10.5h527zM331 377q2 6 7.5 12t10.5 6h237q5 0 8.5 -6.5t1.5 -11.5l-51 -204q-2 -6 -7 -12t-11 -6h-237q-5 0 -8.5 6t-1.5 12z" />
    <glyph glyph-name="FL00F6h" unicode="&#xf6;" 
d="M312 754l-39 -155h210l39 155h-210zM593 754l-39 -155h210l39 155h-210zM633 0q13 0 29.5 10.5t32 26t27.5 32.5t15 31l87 350q3 13 0 30.5t-10.5 33t-19 26t-24.5 10.5h-527q-13 0 -29.5 -10.5t-32 -26t-27.5 -33t-15 -30.5l-87 -350q-3 -14 0 -31t10.5 -32.5t19 -26
t24.5 -10.5h527zM545 173q-2 -6 -7.5 -12t-10.5 -6h-237q-6 0 -9 6t-1 12l51 204q2 5 7.5 11.5t10.5 6.5h237q5 0 8.5 -6t1.5 -12z" />
    <glyph glyph-name="FL00F7h" unicode="&#xf7;" horiz-adv-x="493" 
d="M198 172l-39 -155h182l39 155h-182zM288 533l-39 -155h182l39 155h-182zM76 198h439l39 154h-439z" />
    <glyph glyph-name="FL0100h" unicode="&#xf8;" 
d="M633 0h-527q-13 0 -24.5 10.5t-19 26t-10.5 32.5t0 31l87 350q3 13 15 30.5t27.5 33t32 26t29.5 10.5h527q13 0 24.5 -10.5t19 -26t10.5 -33t0 -30.5l-87 -350q-3 -14 -15 -31t-27.5 -32.5t-32 -26t-29.5 -10.5zM545 173l39 155l-144 -173h87q5 0 10.5 6t7.5 12zM436 395
h-87q-5 0 -10.5 -6.5t-7.5 -11.5l-38 -154z" />
    <glyph glyph-name="FL00F9h" unicode="&#xf9;" 
d="M644 599l-62 155h-205l81 -155h186zM106 0h527q13 0 29.5 10.5t32 26t27.5 32.5t15 31l112 450h-210l-94 -377q-2 -6 -7.5 -12t-10.5 -6h-237q-5 0 -8.5 6t-1.5 12l94 377h-210l-112 -450q-3 -14 0 -31t10.5 -32.5t19 -26t24.5 -10.5z" />
    <glyph glyph-name="FL00FAh" unicode="&#xfa;" 
d="M579 599l159 155h-205l-140 -155h186zM106 0h527q13 0 29.5 10.5t32 26t27.5 32.5t15 31l112 450h-210l-94 -377q-2 -6 -7.5 -12t-10.5 -6h-237q-5 0 -8.5 6t-1.5 12l94 377h-210l-112 -450q-3 -14 0 -31t10.5 -32.5t19 -26t24.5 -10.5z" />
    <glyph glyph-name="FL00FBh" unicode="&#xfb;" 
d="M437 754l-158 -155h198l56 58l27 -58h198l-80 155h-241zM106 0h527q13 0 29.5 10.5t32 26t27.5 32.5t15 31l112 450h-210l-94 -377q-2 -6 -7.5 -12t-10.5 -6h-237q-5 0 -8.5 6t-1.5 12l94 377h-210l-112 -450q-3 -14 0 -31t10.5 -32.5t19 -26t24.5 -10.5z" />
    <glyph glyph-name="FL00FCh" unicode="&#xfc;" 
d="M312 754l-39 -155h210l39 155h-210zM593 754l-39 -155h210l39 155h-210zM106 0h527q13 0 29.5 10.5t32 26t27.5 32.5t15 31l112 450h-210l-94 -377q-2 -6 -7.5 -12t-10.5 -6h-237q-5 0 -8.5 6t-1.5 12l94 377h-210l-112 -450q-3 -14 0 -31t10.5 -32.5t19 -26t24.5 -10.5z
" />
    <glyph glyph-name="FL00FDh" unicode="&#xfd;" horiz-adv-x="731" 
d="M575 599l159 155h-205l-140 -155h186zM460 420l-71 130h-231l171 -275l-69 -275h210l68 274l309 276h-251z" />
    <glyph glyph-name="FL00FEh" unicode="&#xfe;" 
d="M374 550l-18 -71h396q13 0 24.5 -10.5t19 -26t10.5 -33t0 -30.5l-51 -208q-3 -14 -15 -31t-27.5 -32.5t-32 -26t-29.5 -10.5h-348l38 154h203q5 0 10.5 5t7.5 11l16 65q2 6 -1 12t-8 6h-251l-81 -324h-210l137 550h210z" />
    <glyph glyph-name="FL00FFh" unicode="&#xff;" horiz-adv-x="731" 
d="M308 754l-39 -155h210l39 155h-210zM589 754l-39 -155h210l39 155h-210zM460 420l-71 130h-231l171 -275l-69 -275h210l68 274l309 276h-251z" />
    </font>
</defs>
</svg>
