<svg width="204" height="66" viewBox="0 0 204 66" fill="none" xmlns="http://www.w3.org/2000/svg">
<path d="M203.873 44.582C203.714 43.6514 203.427 42.7509 203.019 41.9079C202.512 40.8645 201.838 39.9524 201.009 39.1946C199.574 37.8864 197.819 37.1954 195.933 37.1954H159.462C158.412 37.1954 157.382 37.4119 156.387 37.8426C155.439 37.4165 154.416 37.1954 153.355 37.1954H138.172C136.673 37.1954 135.218 37.6376 133.848 38.5083C133.131 38.9643 132.452 39.5125 131.821 40.1436C131.536 40.4292 131.264 40.7263 131.006 41.0349L140.454 3.73359L141.401 0L137.548 0.00460653L89.1113 0.0667946L83.4855 0.0737044L86.6334 4.73551L94.1129 15.8119L78.3042 37.1954H0L2.1393 41.5186L5.10069 47.5025L1.51063 61.9624L1.43004 62.2825L0.504312 66H62.2514L62.8156 63.7267L63.2601 61.937H65.1507L65.1438 61.9601L65.0632 62.2802L64.1351 66H149.401C150.451 66 151.48 65.7835 152.473 65.3528C153.419 65.7789 154.444 66 155.508 66H185.637L186.202 63.7267L186.646 61.937H192.988C194.487 61.937 195.942 61.4948 197.315 60.6219C198.031 60.1658 198.71 59.6177 199.339 58.9889C199.896 58.4315 200.403 57.8303 200.843 57.2061C201.559 56.1904 202.031 55.1678 202.284 54.076L203.765 48.1198V48.106L203.781 48.0484L203.786 48.0299L203.79 48.0115C204.041 46.9198 204.067 45.7658 203.862 44.582H203.873Z" fill="url(#paint0_linear_188_9080)"/>
<path d="M200.94 45.0863C200.827 44.4322 200.626 43.7988 200.341 43.2091C200.002 42.5112 199.553 41.9032 199.008 41.4034C198.135 40.6087 197.078 40.1872 195.952 40.1872H138.191C137.27 40.1872 136.355 40.4728 135.471 41.0325C134.941 41.3711 134.43 41.7834 133.956 42.2579C133.509 42.7047 133.104 43.1907 132.754 43.702C132.277 44.3953 131.969 45.0609 131.81 45.7312L130.359 51.5677H125.274L125.627 50.1488L137.571 2.99414L89.1343 3.05633L97.7974 15.8855L79.8333 40.1849H4.84044L8.29003 47.1523L4.43515 62.6786L4.35455 63.0011H31.265L34.2748 50.9135L35.06 52.178L33.4319 58.6686L32.345 63.0011H45.5838L47.9395 53.5047L49.3857 52.2126L46.7789 62.6786L46.6983 63.0011H59.9302L60.9388 58.9381H69.0009L68.0706 62.6786L67.99 63.0011H101.127L101.887 59.9354L104.303 62.9043L104.381 63.0011H149.424C150.345 63.0011 151.261 62.7155 152.143 62.1535C152.275 62.0705 152.413 61.9761 152.562 61.8656C153.412 62.6095 154.439 63.0011 155.531 63.0011H183.319L184.327 58.9381H193.011C193.932 58.9381 194.846 58.6525 195.731 58.0905C196.26 57.7519 196.771 57.3396 197.246 56.8652C197.683 56.4275 198.077 55.96 198.42 55.474C198.913 54.7738 199.233 54.0874 199.397 53.3711L200.884 47.3895L200.898 47.332C201.059 46.6295 201.073 45.874 200.937 45.0817V45.0863H200.94ZM101.581 40.1872L113.079 38.5243L114.221 40.2149C114.067 40.1988 113.912 40.1872 113.758 40.1872H101.581Z" fill="url(#paint1_linear_188_9080)"/>
<path d="M124.777 7.15863L121.604 16.0262H109.859L113.026 7.17475H113.014L97.0237 7.19548L102.967 15.9986L86.5644 38.1859L94.6794 37.0112L102.771 35.8412L106.96 24.1337L119.255 22.5905L115.156 34.0492L122.698 45.2154L132.339 7.14941L124.777 7.15863Z" fill="url(#paint2_linear_188_9080)"/>
<path d="M108.114 11.3643L103.379 20.4023L97.2816 32.0453H97.2793L86.5644 38.1858L102.967 15.9984L108.114 11.3643Z" fill="url(#paint3_linear_188_9080)"/>
<path d="M97.0237 7.19531L108.114 11.3642L102.967 15.9984L97.0237 7.19531Z" fill="url(#paint4_linear_188_9080)"/>
<path d="M132.339 7.14941L122.698 45.2154L120.699 33.2477L124.989 19.0158L127.48 10.754L127.517 10.8024L132.339 7.14941Z" fill="url(#paint5_linear_188_9080)"/>
<path d="M132.339 7.14941L127.517 10.8024L127.48 10.754L124.777 7.15863L132.339 7.14941Z" fill="url(#paint6_linear_188_9080)"/>
<path d="M124.777 7.15869L127.517 10.8025L124.989 19.0159L121.604 16.0263L124.777 7.15869Z" fill="url(#paint7_linear_188_9080)"/>
<path d="M124.989 19.0156L120.699 33.2475L115.156 34.049L119.255 22.5903H119.257L124.989 19.0156Z" fill="url(#paint8_linear_188_9080)"/>
<path d="M124.989 19.0156L119.257 22.5903H119.255L106.96 24.1335L103.384 20.4045L120.429 19.3081L124.989 19.0156Z" fill="url(#paint9_linear_188_9080)"/>
<path d="M124.989 19.0155L120.429 19.308L103.384 20.4044L109.859 16.0259H121.604L124.989 19.0155Z" fill="url(#paint10_linear_188_9080)"/>
<path d="M120.699 33.2476L122.698 45.2153L115.156 34.0491L120.699 33.2476Z" fill="url(#paint11_linear_188_9080)"/>
<path d="M113.026 7.1748L109.859 16.0262L103.384 20.4047H103.379L108.114 11.3644L113.014 7.1748H113.026Z" fill="url(#paint12_linear_188_9080)"/>
<path d="M113.014 7.1748L108.114 11.3644L97.0237 7.19553L113.014 7.1748Z" fill="url(#paint13_linear_188_9080)"/>
<path d="M103.384 20.4046L106.96 24.1336L102.771 35.8411L97.2816 32.0453L103.379 20.4023H103.384V20.4046Z" fill="url(#paint14_linear_188_9080)"/>
<path d="M102.771 35.8412L94.6794 37.0112L86.5644 38.1859L97.2793 32.0454H97.2816L102.771 35.8412Z" fill="url(#paint15_linear_188_9080)"/>
<path d="M8.81049 59.6451L11.9791 46.8805L10.4524 43.7964H18.8069L17.3953 49.4739H25.0291L26.4407 43.7964H32.4901L28.5431 59.6451H22.4937L23.9053 53.9676H16.2715L14.8599 59.6451H8.81049Z" fill="white"/>
<path d="M40.5269 43.7964L42.5718 47.5415L46.4889 43.7964H53.7196L44.817 51.7496L42.8573 59.6451H36.8079L38.7952 51.7219L33.8695 43.7987H40.5269V43.7964Z" fill="white"/>
<path d="M59.5986 55.5822L60.7224 51.1438H66.5715C66.6682 51.1438 66.7672 51.0954 66.8732 51.001C66.9791 50.9043 67.0505 50.7983 67.0896 50.6831L67.5502 48.7806C67.5893 48.6655 67.5732 48.5503 67.5064 48.4352C67.4397 48.32 67.3568 48.2624 67.2623 48.2624H60.0316L57.2083 59.6451H51.1589L55.1059 43.7964H72.5634C72.8121 43.7964 73.0493 43.8977 73.2703 44.0981C73.4914 44.3008 73.6733 44.5496 73.8184 44.8467C73.9612 45.1438 74.0625 45.4616 74.1201 45.7979C74.1776 46.1342 74.1776 46.4267 74.1201 46.6778L72.6233 52.7008C72.5657 52.9703 72.4206 53.2674 72.1903 53.5945C71.96 53.9215 71.6952 54.2325 71.3982 54.5319C71.1011 54.8313 70.7925 55.0801 70.477 55.2805C70.1593 55.4831 69.876 55.5822 69.6273 55.5822H59.5986Z" fill="white"/>
<path d="M76.3952 43.7964H94.7462L93.6224 48.2624H81.3785L81.0906 49.5016H90.3387L89.2149 53.94H79.9669L79.679 55.1791H91.923L90.7992 59.6451H72.4482L76.3952 43.7964Z" fill="white"/>
<path d="M114.106 51.5771C113.951 52.1921 113.774 52.7287 113.574 53.1917C113.371 53.6523 113.109 54.037 112.782 54.3433C112.455 54.6496 112.047 54.8869 111.557 55.0504C111.066 55.2139 110.456 55.3061 109.728 55.3245H109.44L112.927 59.6477H106.041L101.258 53.7698L101.922 51.1487H107.771C108.019 51.1487 108.192 50.9759 108.289 50.6304L108.749 48.7855C108.789 48.6888 108.773 48.5782 108.706 48.4539C108.639 48.3295 108.556 48.2673 108.462 48.2673H101.231L98.4076 59.65H92.3582L96.3052 43.8013H113.763C114.011 43.8013 114.249 43.9026 114.47 44.103C114.691 44.3057 114.873 44.5544 115.018 44.8516C115.16 45.1487 115.262 45.4665 115.319 45.8028C115.377 46.1391 115.377 46.4316 115.319 46.6827L114.11 51.5817L114.106 51.5771Z" fill="white"/>
<path d="M120.818 55.1794H131.536L130.412 59.6454H113.645L117.337 44.8193L121.765 51.3744L120.818 55.1794Z" fill="white"/>
<path d="M134.242 59.6451C133.993 59.6451 133.756 59.5438 133.537 59.3434C133.316 59.1407 133.134 58.892 132.989 58.5949C132.844 58.2977 132.745 57.9845 132.687 57.6574C132.63 57.3304 132.63 57.0332 132.687 56.7638L135.193 46.6778C135.25 46.429 135.395 46.1342 135.626 45.7979C135.856 45.4616 136.121 45.1461 136.418 44.8467C136.715 44.5496 137.023 44.2985 137.339 44.0981C137.657 43.8954 137.94 43.7964 138.189 43.7964H153.371C153.62 43.7964 153.857 43.8977 154.078 44.0981C154.299 44.3008 154.481 44.5496 154.626 44.8467C154.769 45.1438 154.87 45.4616 154.928 45.7979C154.985 46.1342 154.985 46.4267 154.928 46.6778L152.422 56.7638C152.365 57.0332 152.219 57.3304 151.989 57.6574C151.759 57.9845 151.494 58.2954 151.197 58.5949C150.9 58.8943 150.591 59.143 150.276 59.3434C149.96 59.5438 149.675 59.6451 149.426 59.6451H134.242ZM148.358 48.783C148.397 48.6678 148.381 48.5526 148.314 48.4375C148.247 48.3223 148.164 48.2647 148.07 48.2647H141.242C141.145 48.2647 141.044 48.3269 140.94 48.4513C140.834 48.5757 140.763 48.6862 140.724 48.783L139.255 54.6609C139.216 54.776 139.227 54.8912 139.282 55.0064C139.34 55.1215 139.427 55.1791 139.543 55.1791H146.37C146.467 55.1791 146.566 55.1215 146.672 55.0064C146.778 54.8912 146.849 54.776 146.888 54.6609L148.358 48.783Z" fill="white"/>
<path d="M155.531 59.6451C155.282 59.6451 155.045 59.5438 154.826 59.3434C154.605 59.1407 154.423 58.892 154.278 58.5949C154.133 58.2977 154.034 57.9845 153.976 57.6574C153.919 57.3304 153.919 57.0332 153.976 56.7638L156.482 46.6778C156.539 46.429 156.684 46.1342 156.915 45.7979C157.145 45.4616 157.41 45.1461 157.707 44.8467C158.004 44.5496 158.312 44.2985 158.628 44.0981C158.946 43.8954 159.229 43.7964 159.478 43.7964H174.66C174.909 43.7964 175.146 43.8977 175.367 44.0981C175.588 44.3008 175.77 44.5496 175.915 44.8467C176.058 45.1438 176.159 45.4616 176.217 45.7979C176.274 46.1342 176.274 46.4267 176.217 46.6778L173.711 56.7638C173.654 57.0332 173.509 57.3304 173.278 57.6574C173.048 57.9845 172.783 58.2954 172.486 58.5949C172.189 58.8943 171.881 59.143 171.565 59.3434C171.25 59.5438 170.964 59.6451 170.715 59.6451H155.531ZM169.649 48.783C169.688 48.6678 169.672 48.5526 169.605 48.4375C169.539 48.3223 169.456 48.2647 169.361 48.2647H162.534C162.437 48.2647 162.335 48.3269 162.232 48.4513C162.126 48.5757 162.055 48.6862 162.015 48.783L160.546 54.6609C160.507 54.776 160.519 54.8912 160.574 55.0064C160.631 55.1215 160.719 55.1791 160.834 55.1791H167.662C167.759 55.1791 167.858 55.1215 167.964 55.0064C168.069 54.8912 168.141 54.776 168.18 54.6609L169.649 48.783Z" fill="white"/>
<path d="M182.987 55.5822L184.111 51.1438H189.96C190.057 51.1438 190.156 51.0954 190.262 51.001C190.367 50.9043 190.439 50.7983 190.478 50.6831L190.939 48.7806C190.978 48.6655 190.962 48.5503 190.895 48.4352C190.828 48.32 190.745 48.2624 190.651 48.2624H183.42L180.597 59.6451H174.547L178.494 43.7964H195.952C196.2 43.7964 196.438 43.8977 196.659 44.0981C196.88 44.3008 197.062 44.5496 197.207 44.8467C197.35 45.1438 197.451 45.4616 197.508 45.7979C197.566 46.1342 197.566 46.4267 197.508 46.6778L196.012 52.7008C195.954 52.9703 195.809 53.2674 195.579 53.5945C195.348 53.9215 195.084 54.2325 194.787 54.5319C194.489 54.8313 194.181 55.0801 193.865 55.2805C193.548 55.4831 193.264 55.5822 193.016 55.5822H182.987Z" fill="white"/>
<defs>
<linearGradient id="paint0_linear_188_9080" x1="0" y1="33.0012" x2="204" y2="33.0012" gradientUnits="userSpaceOnUse">
<stop stop-color="#E6A9FF"/>
<stop offset="0.1" stop-color="#CE94FE"/>
<stop offset="0.3" stop-color="#905FFC"/>
<stop offset="0.34" stop-color="#8556FC"/>
<stop offset="0.62" stop-color="#55B6F6"/>
<stop offset="0.67" stop-color="#4DC7F6"/>
<stop offset="1" stop-color="#59F4D9"/>
</linearGradient>
<linearGradient id="paint1_linear_188_9080" x1="4.35455" y1="32.9987" x2="201.029" y2="32.9987" gradientUnits="userSpaceOnUse">
<stop stop-color="#1B2A48"/>
<stop offset="1" stop-color="#101828"/>
</linearGradient>
<linearGradient id="paint2_linear_188_9080" x1="26.1621" y1="-100.788" x2="190.335" y2="142.456" gradientUnits="userSpaceOnUse">
<stop stop-color="#7957F7"/>
<stop offset="0.16" stop-color="#7F6EF8"/>
<stop offset="0.51" stop-color="#90ACFD"/>
<stop offset="0.52" stop-color="#91AEFE"/>
<stop offset="1" stop-color="#D5A6FB"/>
</linearGradient>
<linearGradient id="paint3_linear_188_9080" x1="109.392" y1="12.3823" x2="87.791" y2="39.5035" gradientUnits="userSpaceOnUse">
<stop stop-color="#4DC7F6"/>
<stop offset="1" stop-color="#8556FC"/>
</linearGradient>
<linearGradient id="paint4_linear_188_9080" x1="99.7617" y1="5.355" x2="125.56" y2="42.5086" gradientUnits="userSpaceOnUse">
<stop stop-color="#E6A9FF"/>
<stop offset="1" stop-color="#8556FC"/>
</linearGradient>
<linearGradient id="paint5_linear_188_9080" x1="120.114" y1="45.2546" x2="130.25" y2="6.71511" gradientUnits="userSpaceOnUse">
<stop stop-color="#E6A9FF"/>
<stop offset="1" stop-color="#8556FC"/>
</linearGradient>
<linearGradient id="paint6_linear_188_9080" x1="132.208" y1="8.90911" x2="97.5118" y2="9.31892" gradientUnits="userSpaceOnUse">
<stop stop-color="#E6A9FF"/>
<stop offset="1" stop-color="#8556FC"/>
</linearGradient>
<linearGradient id="paint7_linear_188_9080" x1="132.344" y1="7.99938" x2="87.6133" y2="38.4953" gradientUnits="userSpaceOnUse">
<stop stop-color="#4DC7F6"/>
<stop offset="1" stop-color="#8556FC"/>
</linearGradient>
<linearGradient id="paint8_linear_188_9080" x1="137.689" y1="15.8394" x2="92.958" y2="46.3354" gradientUnits="userSpaceOnUse">
<stop stop-color="#4DC7F6"/>
<stop offset="1" stop-color="#8556FC"/>
</linearGradient>
<linearGradient id="paint9_linear_188_9080" x1="103.027" y1="3.19451" x2="128.211" y2="40.4497" gradientUnits="userSpaceOnUse">
<stop stop-color="#4DC7F6"/>
<stop offset="0.57" stop-color="#53DEE6"/>
<stop offset="1" stop-color="#59F4D9"/>
</linearGradient>
<linearGradient id="paint10_linear_188_9080" x1="124.97" y1="16.7399" x2="102.709" y2="19.0422" gradientUnits="userSpaceOnUse">
<stop stop-color="#8556FC"/>
<stop offset="1" stop-color="#4DC7F6"/>
</linearGradient>
<linearGradient id="paint11_linear_188_9080" x1="98.3017" y1="5.76042" x2="123.639" y2="41.9951" gradientUnits="userSpaceOnUse">
<stop stop-color="#4DC7F6"/>
<stop offset="0.57" stop-color="#53DEE6"/>
<stop offset="1" stop-color="#59F4D9"/>
</linearGradient>
<linearGradient id="paint12_linear_188_9080" x1="102.272" y1="4.62049" x2="125.921" y2="41.162" gradientUnits="userSpaceOnUse">
<stop stop-color="#E6A9FF"/>
<stop offset="1" stop-color="#8556FC"/>
</linearGradient>
<linearGradient id="paint13_linear_188_9080" x1="132.208" y1="8.92989" x2="97.5118" y2="9.3397" gradientUnits="userSpaceOnUse">
<stop stop-color="#E6A9FF"/>
<stop offset="1" stop-color="#8556FC"/>
</linearGradient>
<linearGradient id="paint14_linear_188_9080" x1="91.4647" y1="11.6154" x2="115.112" y2="48.1569" gradientUnits="userSpaceOnUse">
<stop stop-color="#E6A9FF"/>
<stop offset="1" stop-color="#8556FC"/>
</linearGradient>
<linearGradient id="paint15_linear_188_9080" x1="81.1873" y1="17.7283" x2="106.525" y2="53.963" gradientUnits="userSpaceOnUse">
<stop stop-color="#4DC7F6"/>
<stop offset="0.57" stop-color="#53DEE6"/>
<stop offset="1" stop-color="#59F4D9"/>
</linearGradient>
</defs>
</svg>
