<svg width="143" height="130" viewBox="0 0 143 130" fill="none" xmlns="http://www.w3.org/2000/svg">
<g filter="url(#filter0_f_81_648)">
<path d="M121.738 15.0068H44.5711L35.6369 15L40.641 22.5902L52.5527 40.3346L21.797 82.1774L15 91.4225L26.3125 89.7778L80.4582 81.8982L96.7297 106.126L102.687 115L105.3 104.621L126.365 20.9829L127.871 15L121.738 15.0068Z" fill="url(#paint0_linear_81_648)"/>
</g>
<path d="M121.738 15.0068H44.5711L35.6369 15L40.641 22.5902L52.5527 40.3346L21.797 82.1774L15 91.4225L26.3125 89.7778L80.4582 81.8982L96.7297 106.126L102.687 115L105.3 104.621L126.365 20.9829L127.871 15L121.738 15.0068Z" fill="url(#paint1_linear_81_648)"/>
<path d="M44.3035 19.9069L58.1006 40.4606L25.341 85.0276L82.4452 76.7189L100.389 103.443L121.453 19.8047L44.3035 19.9069Z" fill="url(#paint2_linear_81_648)"/>
<path d="M101.073 26.4721L96.019 40.6785H77.3137L82.3573 26.4993H82.3404L56.872 26.5333L66.3397 40.6342L40.2146 76.1775L53.1384 74.2944L66.0283 72.4216L72.7 53.6658L92.282 51.1937L85.7524 69.551L97.7656 87.4384L113.123 26.4584L101.079 26.4721H101.073Z" fill="url(#paint3_linear_81_648)"/>
<path d="M74.5345 33.2109L66.9929 47.6897L57.2814 66.3399H57.2781L40.2111 76.1775L66.3362 40.6342L74.5345 33.2109Z" fill="url(#paint4_linear_81_648)"/>
<path d="M56.8685 26.5299L74.5312 33.2075L66.3328 40.6308L56.8651 26.5299H56.8685Z" fill="url(#paint5_linear_81_648)"/>
<path d="M113.12 26.4584L97.7621 87.4384L94.5769 68.2673L101.411 45.4696L105.378 32.2336L105.436 32.3119L113.116 26.4584H113.12Z" fill="url(#paint6_linear_81_648)"/>
<path d="M113.12 26.4584L105.439 32.3119L105.382 32.2336L101.076 26.4755L113.12 26.4618V26.4584Z" fill="url(#paint7_linear_81_648)"/>
<path d="M101.073 26.472L105.436 32.3085L101.408 45.4662L96.0155 40.6785L101.069 26.472H101.073Z" fill="url(#paint8_linear_81_648)"/>
<path d="M101.411 45.4662L94.5769 68.2639L85.7489 69.5476L92.2785 51.1903H92.2819L101.411 45.4628V45.4662Z" fill="url(#paint9_linear_81_648)"/>
<path d="M101.411 45.4662L92.2819 51.1937H92.2785L72.6965 53.6659L66.9996 47.6932L94.1504 45.9361L101.411 45.4662Z" fill="url(#paint10_linear_81_648)"/>
<path d="M101.411 45.4662L94.1504 45.9361L66.9996 47.6932L77.3136 40.6785H96.0188L101.411 45.4662Z" fill="url(#paint11_linear_81_648)"/>
<path d="M94.5769 68.2673L97.7621 87.4384L85.7489 69.551L94.5769 68.2673Z" fill="url(#paint12_linear_81_648)"/>
<path d="M82.3572 26.4993L77.3136 40.6785L66.9997 47.6931H66.9929L74.5346 33.2109L82.3403 26.4993H82.3572Z" fill="url(#paint13_linear_81_648)"/>
<path d="M82.3403 26.4993L74.5345 33.2109L56.8719 26.5333L82.3403 26.4993Z" fill="url(#paint14_linear_81_648)"/>
<path d="M66.9997 47.6931L72.6965 53.6658L66.0248 72.4216L57.2815 66.3399L66.9929 47.6897H66.9997V47.6931Z" fill="url(#paint15_linear_81_648)"/>
<path d="M66.0248 72.4216L53.1349 74.2944L40.2111 76.1775L57.2781 66.3399H57.2814L66.0248 72.4216Z" fill="url(#paint16_linear_81_648)"/>
<defs>
<filter id="filter0_f_81_648" x="0" y="0" width="142.871" height="130" filterUnits="userSpaceOnUse" color-interpolation-filters="sRGB">
<feFlood flood-opacity="0" result="BackgroundImageFix"/>
<feBlend mode="normal" in="SourceGraphic" in2="BackgroundImageFix" result="shape"/>
<feGaussianBlur stdDeviation="7.5" result="effect1_foregroundBlur_81_648"/>
</filter>
<linearGradient id="paint0_linear_81_648" x1="15" y1="65.0017" x2="127.871" y2="65.0017" gradientUnits="userSpaceOnUse">
<stop stop-color="#FF64F5"/>
<stop offset="0.07" stop-color="#E678F6"/>
<stop offset="0.23" stop-color="#A9ABFA"/>
<stop offset="0.34" stop-color="#7BD3FD"/>
<stop offset="0.67" stop-color="#57F2D7"/>
<stop offset="1" stop-color="#B4F8DA"/>
</linearGradient>
<linearGradient id="paint1_linear_81_648" x1="15" y1="65.0017" x2="127.871" y2="65.0017" gradientUnits="userSpaceOnUse">
<stop stop-color="#FF64F5"/>
<stop offset="0.07" stop-color="#E678F6"/>
<stop offset="0.23" stop-color="#A9ABFA"/>
<stop offset="0.34" stop-color="#7BD3FD"/>
<stop offset="0.67" stop-color="#57F2D7"/>
<stop offset="1" stop-color="#B4F8DA"/>
</linearGradient>
<linearGradient id="paint2_linear_81_648" x1="25.341" y1="61.6238" x2="121.453" y2="61.6238" gradientUnits="userSpaceOnUse">
<stop stop-color="#082647"/>
<stop offset="1" stop-color="#031124"/>
</linearGradient>
<linearGradient id="paint3_linear_81_648" x1="-55.9959" y1="-146.453" x2="207.566" y2="241.807" gradientUnits="userSpaceOnUse">
<stop stop-color="#7957F7"/>
<stop offset="0.16" stop-color="#7F6EF8"/>
<stop offset="0.51" stop-color="#90ACFD"/>
<stop offset="0.52" stop-color="#91AEFE"/>
<stop offset="1" stop-color="#D5A6FB"/>
</linearGradient>
<linearGradient id="paint4_linear_81_648" x1="76.5689" y1="34.8386" x2="41.9198" y2="78.0943" gradientUnits="userSpaceOnUse">
<stop offset="0.41" stop-color="#4DC7F6"/>
<stop offset="1" stop-color="#8556FC"/>
</linearGradient>
<linearGradient id="paint5_linear_81_648" x1="61.2317" y1="23.5811" x2="102.639" y2="82.8793" gradientUnits="userSpaceOnUse">
<stop stop-color="#E6A9FF"/>
<stop offset="1" stop-color="#8556FC"/>
</linearGradient>
<linearGradient id="paint6_linear_81_648" x1="93.6494" y1="87.5031" x2="109.966" y2="25.8082" gradientUnits="userSpaceOnUse">
<stop stop-color="#E6A9FF"/>
<stop offset="1" stop-color="#8556FC"/>
</linearGradient>
<linearGradient id="paint7_linear_81_648" x1="112.91" y1="29.2745" x2="57.6469" y2="29.9239" gradientUnits="userSpaceOnUse">
<stop stop-color="#E6A9FF"/>
<stop offset="1" stop-color="#8556FC"/>
</linearGradient>
<linearGradient id="paint8_linear_81_648" x1="113.126" y1="27.8171" x2="41.6212" y2="76.2883" gradientUnits="userSpaceOnUse">
<stop stop-color="#4DC7F6"/>
<stop offset="1" stop-color="#8556FC"/>
</linearGradient>
<linearGradient id="paint9_linear_81_648" x1="121.64" y1="40.3754" x2="50.1343" y2="88.85" gradientUnits="userSpaceOnUse">
<stop stop-color="#4DC7F6"/>
<stop offset="1" stop-color="#8556FC"/>
</linearGradient>
<linearGradient id="paint10_linear_81_648" x1="66.431" y1="20.1214" x2="106.861" y2="79.5873" gradientUnits="userSpaceOnUse">
<stop stop-color="#4DC7F6"/>
<stop offset="0.57" stop-color="#53DEE6"/>
<stop offset="1" stop-color="#59F4D9"/>
</linearGradient>
<linearGradient id="paint11_linear_81_648" x1="101.381" y1="41.8226" x2="65.9222" y2="45.4672" gradientUnits="userSpaceOnUse">
<stop stop-color="#8556FC"/>
<stop offset="1" stop-color="#4DC7F6"/>
</linearGradient>
<linearGradient id="paint12_linear_81_648" x1="58.9062" y1="24.2348" x2="99.5751" y2="82.0588" gradientUnits="userSpaceOnUse">
<stop stop-color="#4DC7F6"/>
<stop offset="0.57" stop-color="#53DEE6"/>
<stop offset="1" stop-color="#59F4D9"/>
</linearGradient>
<linearGradient id="paint13_linear_81_648" x1="65.2293" y1="22.4063" x2="103.201" y2="80.7452" gradientUnits="userSpaceOnUse">
<stop stop-color="#E6A9FF"/>
<stop offset="1" stop-color="#8556FC"/>
</linearGradient>
<linearGradient id="paint14_linear_81_648" x1="112.91" y1="29.3086" x2="57.6469" y2="29.958" gradientUnits="userSpaceOnUse">
<stop stop-color="#E6A9FF"/>
<stop offset="1" stop-color="#8556FC"/>
</linearGradient>
<linearGradient id="paint15_linear_81_648" x1="48.0135" y1="33.6127" x2="85.9882" y2="91.9516" gradientUnits="userSpaceOnUse">
<stop stop-color="#E6A9FF"/>
<stop offset="1" stop-color="#8556FC"/>
</linearGradient>
<linearGradient id="paint16_linear_81_648" x1="31.6472" y1="43.406" x2="72.316" y2="101.23" gradientUnits="userSpaceOnUse">
<stop stop-color="#4DC7F6"/>
<stop offset="0.57" stop-color="#53DEE6"/>
<stop offset="1" stop-color="#59F4D9"/>
</linearGradient>
</defs>
</svg>
